<svg width="849" height="632" viewBox="0 0 849 632" fill="none" xmlns="http://www.w3.org/2000/svg">
<g clip-path="url(#clip0_2191_1446)">
<g filter="url(#filter0_dddd_2191_1446)">
<path d="M793.294 316.054L779.248 316.483C778.172 316.516 777.121 316.131 776.329 315.414L761.826 302.283C761.67 302.142 761.526 301.99 761.395 301.827L752.837 291.244C751.993 290.2 751.74 288.82 752.162 287.569L755.081 278.923C755.167 278.666 755.281 278.419 755.42 278.186L760.304 269.988C760.85 269.07 761.759 268.41 762.822 268.159L780.54 263.977C780.734 263.931 780.932 263.899 781.131 263.882L799.492 262.276C800.724 262.169 801.946 262.614 802.808 263.486L809.764 270.514L815.89 276.514C817.005 277.607 817.375 279.221 816.837 280.654L813.38 289.874L807.992 300.035C807.876 300.255 807.738 300.463 807.581 300.656L796.322 314.571C795.591 315.475 794.483 316.017 793.294 316.054Z" fill="url(#paint0_linear_2191_1446)"/>
<g style="mix-blend-mode:soft-light">
<path fill-rule="evenodd" clip-rule="evenodd" d="M762.46 265.335C761.505 265.486 760.602 265.862 759.83 266.429C759.058 266.997 758.441 267.738 758.034 268.587L748.888 287.644C748.331 288.812 748.46 290.172 749.227 291.209C757.74 302.716 768.564 312.445 781.066 319.826L787.629 323.701C788.465 324.194 789.459 324.381 790.432 324.227C791.404 324.074 792.291 323.59 792.933 322.863L797.965 317.159C807.553 306.288 814.813 293.701 819.322 280.135C819.728 278.913 819.423 277.58 818.529 276.641L803.888 261.342C803.237 260.662 802.42 260.148 801.51 259.847C800.6 259.546 799.625 259.467 798.671 259.618L762.46 265.335ZM762.592 270.586C762.651 270.465 762.739 270.359 762.849 270.279C762.96 270.198 763.089 270.144 763.225 270.123L770.977 268.898L766.976 284.57C766.889 284.929 766.834 285.295 766.811 285.663C764.451 285.864 762.089 286.03 759.724 286.161L754.994 286.427L762.592 270.586ZM755.544 291.252C763.17 300.818 772.518 308.977 783.148 315.344L768.546 290.379C765.692 290.638 762.833 290.848 759.972 291.007L755.544 291.252ZM774.017 289.819L789.036 315.504L795.316 286.454C788.268 287.885 781.16 289.008 774.014 289.82M800.691 285.301L794.588 313.537C802.71 304.207 809.056 293.569 813.325 282.123L809.039 283.255C806.269 283.983 803.486 284.665 800.691 285.301ZM812.341 277.367L807.759 278.575C805.47 279.179 803.172 279.75 800.865 280.286C800.73 279.942 800.565 279.61 800.371 279.294L791.683 265.627L799.435 264.402C799.571 264.38 799.711 264.392 799.841 264.434C799.971 264.477 800.088 264.55 800.181 264.648L812.341 277.367ZM795.79 281.405C787.922 283.054 779.988 284.308 771.99 285.165L776.361 268.048L786.299 266.477L795.79 281.405Z" fill="white"/>
</g>
</g>
<g filter="url(#filter1_dddd_2191_1446)">
<path d="M609.751 373.349L588.935 386.156C587.55 387.008 585.711 387.132 584.226 386.474L561.295 376.31C561.073 376.212 560.862 376.098 560.666 375.969L545.715 366.151C544.622 365.434 544.035 364.314 544.143 363.149L545.97 343.337C546.001 343.002 546.089 342.67 546.232 342.353L551.664 330.224C552.033 329.399 552.752 328.705 553.685 328.27L578.996 316.487L605.634 307.727C606.932 307.3 608.382 307.4 609.543 307.995L621.276 314.013L631.659 319.127C633.191 319.882 633.973 321.347 633.625 322.813L630.6 335.564L625.149 349.614C625.072 349.812 624.974 350.005 624.857 350.191L611.063 372.078C610.749 372.577 610.3 373.012 609.751 373.349Z" fill="url(#paint1_linear_2191_1446)"/>
<g style="mix-blend-mode:soft-light">
<path fill-rule="evenodd" clip-rule="evenodd" d="M553.374 324.688C552.059 325.205 550.866 325.969 549.899 326.912C548.933 327.855 548.224 328.948 547.835 330.094L539.077 355.816C538.545 357.391 539.023 358.95 540.332 359.901C554.857 370.453 572.257 378.087 591.512 382.357L601.621 384.598C602.908 384.884 604.353 384.751 605.692 384.225C607.032 383.698 608.179 382.813 608.925 381.728L614.787 373.215C625.951 356.991 633.458 339.569 636.866 321.969C637.172 320.383 636.452 318.919 634.985 318.129L610.984 305.28C609.916 304.708 608.651 304.392 607.301 304.36C605.951 304.328 604.557 304.581 603.243 305.097L553.374 324.688ZM554.705 330.835C554.761 330.671 554.862 330.515 555 330.381C555.139 330.246 555.309 330.138 555.497 330.064L566.173 325.869L563.94 345.773C563.896 346.228 563.898 346.678 563.946 347.12C560.658 348.195 557.359 349.229 554.05 350.222L547.431 352.214L554.705 330.835ZM549.259 357.71C562.109 366.287 577.082 372.593 593.476 376.332L567.423 352.067C563.45 353.386 559.46 354.647 555.456 355.851L549.259 357.71ZM575.023 349.466L601.822 374.431L604.355 337.94C594.719 342.129 584.93 345.975 575.018 349.468M611.692 334.672L609.23 370.141C618.662 356.255 625.301 341.456 628.834 326.442L623.031 329.297C619.278 331.139 615.499 332.931 611.692 334.672ZM626.408 321.181L620.203 324.232C617.104 325.757 613.984 327.245 610.845 328.696C610.579 328.338 610.273 328.005 609.931 327.701L594.689 314.664L605.365 310.469C605.552 310.395 605.751 310.358 605.944 310.363C606.137 310.367 606.318 310.412 606.471 310.493L626.408 321.181ZM603.924 331.817C593.177 336.553 582.251 340.846 571.147 344.696L573.587 322.955L587.274 317.577L603.924 331.817Z" fill="white"/>
</g>
</g>
<path d="M817.248 295.052C817.169 295.013 817.145 294.912 817.199 294.843V294.843C817.297 294.717 817.383 294.585 817.455 294.449L823.718 282.617C824.185 281.734 824.046 280.734 823.347 279.945L816.941 272.72C816.794 272.555 816.625 272.402 816.437 272.263L808.026 266.071C807.278 265.521 806.263 265.229 805.222 265.265L783.796 266.015C783.607 266.022 783.419 266.039 783.234 266.067L761.837 269.295C760.714 269.464 759.753 270.011 759.223 270.781L753.584 278.986L748.441 286.195C747.75 287.164 747.851 288.347 748.699 289.24L754.726 295.582C755.006 295.877 754.886 296.364 754.5 296.494V296.494C754.328 296.552 754.138 296.522 753.992 296.415L747.372 291.541C746.624 290.99 745.609 290.698 744.568 290.735L723.142 291.485C722.953 291.491 722.765 291.509 722.579 291.537L701.182 294.764C700.06 294.933 699.098 295.48 698.569 296.25L692.929 304.455L687.787 311.665C687.096 312.633 687.196 313.816 688.045 314.709V314.709C691.579 318.428 690.452 324.513 685.822 326.721L684.031 327.574C682.823 328.15 681.502 328.449 680.164 328.449H660.752L651.8 327.625C649.671 327.429 648.081 325.58 648.205 323.446V323.446C648.296 321.895 647.369 320.41 645.729 319.482L630.711 310.983C630.367 310.789 629.997 310.622 629.608 310.486L612.238 304.401C610.693 303.86 608.921 303.827 607.343 304.311L574.866 314.27C574.58 314.357 574.303 314.461 574.037 314.581L543.371 328.344C541.762 329.066 540.671 330.303 540.404 331.708L537.562 346.666L536.354 352.401C535.805 355.006 534.406 357.355 532.376 359.077L493.187 392.332C492.216 393.157 491.381 394.131 490.716 395.218L486.922 401.418C484.819 404.854 481.132 407.006 477.106 407.147L473.38 407.278C473.192 407.284 473.004 407.302 472.818 407.33L451.421 410.557C450.298 410.726 449.337 411.273 448.808 412.043L443.168 420.248L438.025 427.458C437.335 428.426 437.435 429.609 438.284 430.502V430.502C439.343 431.617 438.12 433.385 436.703 432.788L426.624 428.538C424.708 427.73 422.389 427.695 420.433 428.446L402.514 435.318C402.104 435.475 401.716 435.665 401.358 435.883L385.364 445.623C383.942 446.49 383.053 447.764 382.91 449.145L379.957 477.559C379.931 477.809 379.93 478.061 379.954 478.311L382.673 507.227V507.227C382.812 508.703 382.553 510.585 381.193 511.175L375.974 513.44C374.27 514.179 372.318 514.076 370.701 513.161L369.001 512.199C368.891 512.137 368.773 512.084 368.649 512.04L363.098 510.096C362.604 509.923 362.038 509.912 361.534 510.067L351.155 513.249C351.064 513.277 350.975 513.311 350.891 513.349L341.091 517.747C340.576 517.978 340.228 518.373 340.143 518.822L339.235 523.602V523.602C338.881 525.28 337.299 526.406 335.598 526.192L331.713 525.702C331.124 525.628 330.522 525.761 330.077 526.063L325.334 529.281L321.075 532.082C320.502 532.458 320.265 533.05 320.462 533.605L321.83 537.44C322.039 538.025 322.292 538.592 322.588 539.137L324.869 543.337C324.917 543.426 324.976 543.51 325.046 543.59V543.59C325.15 543.71 325.105 543.897 324.958 543.957L309.075 550.412C307.41 551.09 305.991 552.069 304.945 553.263C303.898 554.457 303.255 555.828 303.074 557.256L300.906 574.253C300.539 577.133 299.14 579.782 296.968 581.709L285.214 592.143C283.334 593.811 280.978 594.847 278.477 595.105L257.881 597.225C256.962 597.32 256.07 596.882 255.583 596.097V596.097C255.351 595.723 254.926 595.439 254.409 595.311L243.766 592.682C243.672 592.659 243.576 592.641 243.478 592.629L232.248 591.214C231.659 591.14 231.057 591.272 230.612 591.574L225.869 594.792L221.61 597.594C221.038 597.97 220.8 598.562 220.998 599.116V599.116C221.331 600.052 220.7 601.053 219.711 601.155L210.299 602.124C208.727 602.286 207.22 602.854 205.965 603.815C202.929 606.139 199.454 609.059 196.287 612.168C196.162 612.291 195.955 612.269 195.86 612.121V612.121C195.814 612.051 195.761 611.983 195.702 611.919L190.537 606.31C190.152 605.892 189.519 605.646 188.847 605.653L182.692 605.719C182.551 605.72 182.411 605.733 182.273 605.756L176.141 606.809C175.596 606.903 175.126 607.163 174.842 607.529L168.999 615.059C168.947 615.126 168.903 615.195 168.865 615.266L164.497 623.513C164.267 623.946 164.309 624.434 164.609 624.841L167.81 629.172L170.568 633.042C170.938 633.562 171.668 633.875 172.446 633.847L179.052 633.614L186.296 632.651C186.423 632.634 186.549 632.608 186.67 632.573L188.701 631.984C188.774 631.963 188.852 631.976 188.914 632.019V632.019C188.954 632.047 189.003 632.062 189.052 632.062H848.705V317.78C848.705 313.177 846.071 308.979 841.926 306.976L817.248 295.052Z" fill="url(#paint2_linear_2191_1446)"/>
<path d="M144.34 631.38L147.835 634.537C148.04 634.721 148.332 634.837 148.648 634.859L156.152 635.379C156.213 635.383 156.275 635.384 156.336 635.381L161.686 635.128C162.085 635.109 162.445 634.941 162.649 634.68L164.512 632.288C164.554 632.233 164.589 632.175 164.616 632.115L165.812 629.425C165.918 629.186 165.89 628.924 165.733 628.701L162.509 624.117C162.481 624.076 162.449 624.038 162.413 624.001L158.253 619.762C158.034 619.54 157.695 619.405 157.33 619.395L153.443 619.286L150.001 619.15C149.539 619.132 149.104 619.316 148.881 619.624L147.509 621.525C147.164 622.003 146.855 622.506 146.583 623.029L145.39 625.333C145.362 625.387 145.341 625.443 145.327 625.501L144.077 630.625C144.011 630.894 144.108 631.171 144.34 631.38Z" fill="url(#paint3_linear_2191_1446)"/>
<mask id="mask0_2191_1446" style="mask-type:alpha" maskUnits="userSpaceOnUse" x="144" y="265" width="705" height="371">
<path d="M817.248 295.052C817.169 295.014 817.145 294.913 817.199 294.843V294.843C817.297 294.717 817.383 294.586 817.455 294.45L823.718 282.617C824.185 281.735 824.046 280.734 823.347 279.945L816.941 272.721C816.794 272.556 816.625 272.402 816.437 272.264L808.026 266.072C807.278 265.521 806.263 265.229 805.222 265.266L783.796 266.016C783.607 266.022 783.419 266.04 783.234 266.068L761.837 269.295C760.714 269.464 759.753 270.011 759.223 270.781L753.584 278.987L748.441 286.196C747.75 287.164 747.851 288.347 748.699 289.24L754.726 295.583C755.006 295.878 754.886 296.364 754.5 296.494V296.494C754.328 296.552 754.138 296.523 753.992 296.415L747.372 291.541C746.624 290.99 745.609 290.699 744.568 290.735L723.142 291.485C722.953 291.492 722.765 291.509 722.579 291.537L701.182 294.764C700.06 294.934 699.098 295.48 698.569 296.251L692.929 304.456L687.787 311.665C687.096 312.634 687.196 313.817 688.045 314.71V314.71C691.579 318.429 690.452 324.513 685.822 326.721L684.031 327.575C682.823 328.151 681.502 328.449 680.164 328.449H660.752L651.8 327.625C649.671 327.43 648.081 325.581 648.205 323.446V323.446C648.296 321.895 647.369 320.411 645.729 319.483L630.711 310.984C630.367 310.789 629.997 310.622 629.608 310.486L612.238 304.402C610.693 303.861 608.921 303.828 607.343 304.312L574.866 314.27C574.58 314.358 574.303 314.462 574.037 314.581L543.371 328.344C541.762 329.066 540.671 330.303 540.404 331.708L537.562 346.667L536.354 352.402C535.805 355.007 534.406 357.355 532.376 359.078L493.187 392.333C492.216 393.158 491.381 394.132 490.716 395.219L486.922 401.419C484.819 404.855 481.132 407.007 477.106 407.148L473.38 407.278C473.192 407.285 473.004 407.302 472.818 407.33L451.421 410.557C450.298 410.727 449.337 411.273 448.808 412.044L443.168 420.249L438.025 427.458C437.335 428.427 437.435 429.61 438.284 430.503V430.503C439.343 431.618 438.12 433.386 436.703 432.788L426.624 428.538C424.708 427.73 422.389 427.696 420.433 428.446L402.514 435.319C402.104 435.476 401.716 435.665 401.358 435.883L385.364 445.624C383.942 446.49 383.053 447.764 382.91 449.145L379.957 477.559C379.931 477.81 379.93 478.061 379.954 478.312L382.673 507.227V507.227C382.812 508.703 382.553 510.586 381.193 511.176L375.974 513.44C374.27 514.18 372.318 514.076 370.701 513.161L369.001 512.2C368.891 512.137 368.773 512.084 368.649 512.041L363.098 510.096C362.604 509.923 362.038 509.913 361.534 510.068L351.155 513.25C351.064 513.278 350.975 513.311 350.891 513.349L341.091 517.747C340.576 517.978 340.228 518.373 340.143 518.822L339.235 523.602V523.602C338.881 525.28 337.299 526.407 335.598 526.192L331.713 525.703C331.124 525.629 330.522 525.761 330.077 526.063L325.334 529.281L321.075 532.083C320.502 532.459 320.265 533.051 320.462 533.605L321.83 537.441C322.039 538.025 322.292 538.592 322.588 539.137L324.869 543.338C324.917 543.426 324.976 543.511 325.046 543.591V543.591C325.15 543.711 325.105 543.898 324.958 543.958L309.075 550.413C307.41 551.09 305.991 552.069 304.945 553.263C303.898 554.457 303.255 555.829 303.074 557.256L300.906 574.254C300.539 577.134 299.14 579.783 296.968 581.71L285.214 592.143C283.334 593.812 280.978 594.848 278.477 595.105L257.881 597.226C256.962 597.32 256.07 596.882 255.583 596.097V596.097C255.351 595.724 254.926 595.439 254.409 595.312L243.766 592.683C243.672 592.66 243.576 592.642 243.478 592.63L232.248 591.214C231.659 591.14 231.057 591.273 230.612 591.575L225.869 594.793L221.61 597.594C221.038 597.971 220.8 598.562 220.998 599.117V599.117C221.331 600.053 220.7 601.054 219.711 601.155L210.299 602.124C208.727 602.286 207.22 602.855 205.965 603.816C202.929 606.139 199.454 609.06 196.287 612.169C196.162 612.292 195.955 612.269 195.86 612.122V612.122C195.814 612.051 195.761 611.983 195.702 611.919L190.537 606.31C190.152 605.892 189.519 605.646 188.847 605.653L182.692 605.719C182.551 605.721 182.411 605.733 182.273 605.757L176.141 606.81C175.596 606.903 175.126 607.164 174.842 607.53L168.999 615.06C168.947 615.126 168.903 615.195 168.865 615.267L164.497 623.514C164.267 623.946 164.309 624.435 164.609 624.841L167.81 629.173L170.568 633.043C170.938 633.562 171.668 633.875 172.446 633.848L179.052 633.614L186.296 632.652C186.423 632.635 186.549 632.609 186.67 632.574L188.701 631.984C188.774 631.963 188.852 631.977 188.914 632.02V632.02C188.954 632.048 189.003 632.062 189.052 632.062H848.705V317.781C848.705 313.177 846.071 308.979 841.926 306.976L817.248 295.052Z" fill="url(#paint4_linear_2191_1446)"/>
<path d="M144.34 631.381L147.835 634.537C148.04 634.722 148.332 634.838 148.648 634.86L156.152 635.379C156.213 635.384 156.275 635.384 156.336 635.381L161.686 635.129C162.085 635.11 162.445 634.942 162.649 634.681L164.512 632.288C164.554 632.233 164.589 632.175 164.616 632.115L165.812 629.426C165.918 629.187 165.89 628.925 165.733 628.702L162.509 624.117C162.481 624.077 162.449 624.038 162.413 624.001L158.253 619.763C158.034 619.541 157.695 619.405 157.33 619.395L153.443 619.287L150.001 619.151C149.539 619.132 149.104 619.317 148.881 619.625L147.509 621.525C147.164 622.003 146.855 622.506 146.583 623.03L145.39 625.333C145.362 625.388 145.341 625.444 145.327 625.502L144.077 630.625C144.011 630.894 144.108 631.171 144.34 631.381Z" fill="url(#paint5_linear_2191_1446)"/>
</mask>
<g mask="url(#mask0_2191_1446)">
<path d="M431.99 488.285L378.052 427.948L63.127 646.153L389.386 695.606L654.561 638.991L581.783 579.056L530.887 567.64L514.714 563.359L503.298 550.992H491.406H482.844L480.466 543.857L471.428 546.711L463.817 543.857V533.868L451.188 522.111H431.99V488.285Z" fill="url(#paint6_linear_2191_1446)"/>
<g filter="url(#filter2_dddd_2191_1446)">
<path d="M794.181 316.384L779.53 322.113C778.07 322.684 776.393 322.376 775.232 321.325L761.396 308.797C761.24 308.656 761.096 308.504 760.965 308.342L752.265 297.582C751.5 296.637 751.216 295.41 751.491 294.248L755.079 279.108C755.168 278.729 755.316 278.366 755.516 278.031L760.307 269.988C760.853 269.07 761.762 268.41 762.825 268.159L780.543 263.977C780.737 263.931 780.935 263.899 781.134 263.882L799.495 262.276C800.727 262.169 801.949 262.614 802.811 263.486L809.767 270.514L815.893 276.514C817.008 277.607 817.378 279.221 816.84 280.654L813.383 289.874L807.995 300.035C807.879 300.255 807.741 300.463 807.584 300.656L795.831 315.182C795.399 315.716 794.83 316.13 794.181 316.384Z" fill="url(#paint7_linear_2191_1446)"/>
<g style="mix-blend-mode:soft-light">
<path fill-rule="evenodd" clip-rule="evenodd" d="M762.462 265.335C761.507 265.486 760.604 265.862 759.832 266.429C759.06 266.997 758.443 267.738 758.036 268.587L748.89 287.644C748.333 288.812 748.462 290.172 749.229 291.209C757.742 302.716 768.566 312.445 781.068 319.826L787.631 323.701C788.466 324.194 789.461 324.381 790.433 324.227C791.406 324.073 792.293 323.59 792.934 322.863L797.967 317.159C807.555 306.288 814.815 293.701 819.324 280.135C819.73 278.913 819.425 277.58 818.531 276.641L803.89 261.342C803.239 260.662 802.422 260.148 801.512 259.847C800.602 259.546 799.627 259.467 798.673 259.618L762.462 265.335ZM762.594 270.586C762.653 270.465 762.741 270.359 762.851 270.279C762.961 270.198 763.091 270.144 763.227 270.123L770.979 268.898L766.978 284.57C766.891 284.929 766.836 285.295 766.813 285.663C764.453 285.864 762.09 286.03 759.726 286.161L754.996 286.427L762.594 270.586ZM755.546 291.252C763.172 300.818 772.52 308.977 783.15 315.344L768.548 290.379C765.694 290.638 762.835 290.848 759.974 291.007L755.546 291.252ZM774.019 289.819L789.038 315.504L795.318 286.454C788.27 287.885 781.162 289.008 774.015 289.82M800.693 285.301L794.59 313.537C802.712 304.207 809.058 293.569 813.327 282.123L809.041 283.255C806.271 283.983 803.488 284.665 800.693 285.301ZM812.343 277.367L807.761 278.575C805.472 279.179 803.174 279.75 800.867 280.286C800.732 279.942 800.567 279.61 800.372 279.294L791.685 265.627L799.437 264.402C799.573 264.38 799.713 264.392 799.843 264.434C799.973 264.477 800.09 264.55 800.183 264.648L812.343 277.367ZM795.792 281.405C787.924 283.054 779.99 284.308 771.991 285.165L776.363 268.048L786.301 266.477L795.792 281.405Z" fill="white"/>
</g>
</g>
<g filter="url(#filter3_dddd_2191_1446)">
<path d="M708.79 413.966L702.844 408.929C702.023 408.232 701.5 407.244 701.392 406.18L700.185 394.336C700.163 394.127 700.158 393.918 700.17 393.709L700.592 385.824C700.664 384.483 701.399 383.288 702.55 382.642L706.898 380.2C707.134 380.067 707.383 379.96 707.642 379.88L712.812 378.28C713.833 377.964 714.95 378.082 715.908 378.608L725.57 383.907C725.745 384.003 725.913 384.111 726.073 384.232L734.917 390.903C735.904 391.648 736.513 392.796 736.57 394.021L736.836 399.698L737.123 404.307C737.221 405.865 736.414 407.312 735.056 408.017L730.214 410.529L723.374 413.024C723.14 413.109 722.899 413.171 722.653 413.21L712.033 414.892C710.884 415.074 709.698 414.736 708.79 413.966Z" fill="url(#paint8_linear_2191_1446)"/>
<g style="mix-blend-mode:soft-light">
<path fill-rule="evenodd" clip-rule="evenodd" d="M716.42 376.806C715.898 376.467 715.303 376.257 714.689 376.195C714.074 376.134 713.459 376.223 712.898 376.454L700.296 381.632C699.525 381.951 698.999 382.658 698.919 383.486C698.03 392.669 699.015 401.998 701.816 410.926L703.287 415.614C703.474 416.211 703.87 416.729 704.402 417.075C704.934 417.421 705.568 417.573 706.188 417.501L711.059 416.942C720.341 415.873 729.249 412.979 737.261 408.429C737.983 408.019 738.412 407.249 738.389 406.414L737.98 392.771C737.962 392.164 737.793 391.565 737.487 391.029C737.181 390.492 736.748 390.033 736.226 389.694L716.42 376.806ZM714.218 379.378C714.298 379.345 714.386 379.332 714.474 379.341C714.561 379.35 714.646 379.38 714.721 379.429L718.961 382.188L710.283 387.965C710.086 388.1 709.902 388.251 709.732 388.417C708.516 387.495 707.313 386.555 706.124 385.598L703.744 383.684L714.218 379.378ZM701.926 386.232C701.449 394.103 702.405 402.043 704.747 409.679L708.528 391.424C707.049 390.317 705.59 389.184 704.151 388.025L701.926 386.232ZM711.389 393.517L707.498 412.296L723.04 401.096C719.047 398.74 715.159 396.211 711.387 393.516M726.111 402.863L711.005 413.75C718.92 412.787 726.549 410.432 733.532 406.793L730.991 405.486C729.35 404.639 727.724 403.765 726.111 402.863ZM735.113 404.091L732.397 402.692C731.041 401.994 729.694 401.276 728.358 400.537C728.442 400.314 728.506 400.084 728.55 399.849L730.287 389.556L734.528 392.314C734.602 392.363 734.664 392.428 734.708 392.505C734.752 392.581 734.776 392.667 734.779 392.754L735.113 404.091ZM725.445 398.883C720.966 396.277 716.627 393.454 712.426 390.414L721.906 384.103L727.342 387.64L725.445 398.883Z" fill="white"/>
</g>
</g>
<g filter="url(#filter4_dddd_2191_1446)">
<path d="M486.107 629.966L480.161 624.929C479.339 624.232 478.816 623.244 478.708 622.18L477.501 610.336C477.48 610.127 477.475 609.918 477.486 609.709L477.908 601.824C477.98 600.483 478.715 599.288 479.866 598.642L484.214 596.2C484.45 596.067 484.7 595.96 484.959 595.88L490.129 594.28C491.149 593.964 492.266 594.082 493.224 594.608L502.886 599.907C503.061 600.003 503.229 600.111 503.389 600.232L512.233 606.903C513.22 607.648 513.829 608.796 513.887 610.021L514.152 615.698L514.44 620.307C514.537 621.865 513.731 623.312 512.372 624.017L507.53 626.529L500.69 629.024C500.457 629.109 500.215 629.171 499.969 629.21L489.349 630.892C488.2 631.074 487.015 630.736 486.107 629.966Z" fill="url(#paint9_linear_2191_1446)"/>
<g style="mix-blend-mode:soft-light">
<path fill-rule="evenodd" clip-rule="evenodd" d="M493.737 592.806C493.214 592.467 492.62 592.257 492.005 592.195C491.391 592.134 490.776 592.223 490.214 592.454L477.612 597.632C476.841 597.951 476.316 598.658 476.235 599.486C475.346 608.669 476.331 617.998 479.133 626.926L480.603 631.614C480.791 632.211 481.186 632.729 481.718 633.075C482.25 633.421 482.884 633.573 483.504 633.501L488.375 632.942C497.657 631.873 506.565 628.979 514.577 624.429C515.299 624.019 515.728 623.249 515.706 622.414L515.297 608.771C515.278 608.164 515.109 607.565 514.803 607.029C514.497 606.492 514.064 606.033 513.543 605.694L493.737 592.806ZM491.534 595.378C491.614 595.345 491.702 595.332 491.79 595.341C491.878 595.35 491.962 595.38 492.037 595.429L496.277 598.188L487.599 603.965C487.402 604.1 487.218 604.251 487.049 604.417C485.832 603.495 484.629 602.555 483.44 601.598L481.061 599.684L491.534 595.378ZM479.242 602.232C478.766 610.103 479.721 618.043 482.064 625.679L485.844 607.424C484.366 606.317 482.907 605.184 481.468 604.025L479.242 602.232ZM488.706 609.517L484.814 628.296L500.356 617.096C496.364 614.74 492.476 612.211 488.704 609.516M503.428 618.863L488.321 629.75C496.237 628.787 503.865 626.432 510.848 622.793L508.308 621.486C506.667 620.639 505.04 619.765 503.428 618.863ZM512.429 620.091L509.714 618.692C508.357 617.994 507.011 617.276 505.675 616.537C505.759 616.314 505.822 616.084 505.866 615.849L507.604 605.556L511.844 608.314C511.919 608.363 511.98 608.428 512.024 608.505C512.068 608.581 512.092 608.667 512.095 608.754L512.429 620.091ZM502.761 614.883C498.283 612.277 493.943 609.454 489.743 606.414L499.222 600.103L504.659 603.64L502.761 614.883Z" fill="white"/>
</g>
</g>
<g filter="url(#filter5_dddd_2191_1446)">
<path d="M530.282 628.299L523.876 632.737C522.991 633.351 521.9 633.599 520.845 633.429L509.092 631.526C508.885 631.493 508.682 631.443 508.483 631.379L500.976 628.928C499.7 628.512 498.736 627.492 498.41 626.213L497.177 621.381C497.11 621.119 497.072 620.85 497.061 620.579L496.855 615.171C496.814 614.103 497.218 613.055 497.973 612.266L505.594 604.306C505.732 604.162 505.881 604.028 506.039 603.905L514.773 597.091C515.748 596.33 517.015 596.039 518.212 596.301L523.765 597.515L528.291 598.431C529.821 598.741 531.01 599.894 531.338 601.389L532.511 606.716L533.149 613.969C533.171 614.217 533.168 614.466 533.142 614.714L532.016 625.407C531.894 626.564 531.26 627.621 530.282 628.299Z" fill="url(#paint10_linear_2191_1446)"/>
<g style="mix-blend-mode:soft-light">
<path fill-rule="evenodd" clip-rule="evenodd" d="M496.367 611.305C495.903 611.721 495.547 612.241 495.328 612.819C495.109 613.397 495.036 614.014 495.113 614.616L496.851 628.129C496.959 628.956 497.506 629.647 498.285 629.939C506.924 633.176 516.19 634.641 525.54 634.248L530.448 634.042C531.073 634.015 531.676 633.768 532.148 633.343C532.62 632.919 532.93 632.346 533.022 631.728L533.744 626.879C535.116 617.637 534.628 608.284 532.308 599.366C532.099 598.563 531.467 597.949 530.654 597.755L517.371 594.616C516.78 594.476 516.158 594.485 515.56 594.641C514.962 594.798 514.407 595.097 513.944 595.513L496.367 611.305ZM498.28 614.098C498.269 614.012 498.279 613.924 498.311 613.842C498.342 613.759 498.393 613.685 498.459 613.626L502.222 610.245L505.555 620.123C505.634 620.348 505.732 620.565 505.849 620.772C504.643 621.708 503.424 622.627 502.191 623.527L499.727 625.33L498.28 614.098ZM501.716 627.746C509.195 630.245 517.112 631.379 525.094 631.094L508.441 622.714C506.989 623.855 505.516 624.971 504.025 626.061L501.716 627.746ZM511.204 620.493L528.334 629.115L521.542 611.203C518.232 614.449 514.782 617.549 511.202 620.494M524.044 608.694L530.647 626.104C531.767 618.21 531.468 610.231 529.762 602.544L527.842 604.66C526.599 606.025 525.333 607.37 524.044 608.694ZM527.562 600.317L525.508 602.578C524.482 603.707 523.439 604.822 522.38 605.921C522.186 605.782 521.98 605.661 521.764 605.558L512.273 601.213L516.035 597.832C516.102 597.773 516.181 597.73 516.266 597.707C516.351 597.685 516.44 597.684 516.525 597.703L527.562 600.317ZM520.027 608.306C516.351 611.957 512.5 615.418 508.475 618.687L504.835 607.896L509.659 603.562L520.027 608.306Z" fill="white"/>
</g>
</g>
<g filter="url(#filter6_dddd_2191_1446)">
<path d="M470.192 632.024L465.997 634.976C465.086 635.617 463.962 635.898 462.879 635.756L454.679 634.678C454.461 634.65 454.248 634.605 454.041 634.543L449.155 633.091C447.842 632.701 446.871 631.69 446.579 630.41L445.909 627.472C445.851 627.22 445.821 626.96 445.819 626.699L445.79 623.112C445.782 622.096 446.196 621.094 446.943 620.321L452.532 614.534C452.67 614.391 452.818 614.258 452.975 614.134L459.208 609.23C460.212 608.44 461.519 608.113 462.747 608.344L466.343 609.022L468.978 609.476C470.559 609.748 471.765 610.889 472.053 612.387L472.685 615.673L472.995 620.977C473.009 621.214 472.999 621.453 472.967 621.691L471.943 629.221C471.793 630.326 471.156 631.345 470.192 632.024Z" fill="url(#paint11_linear_2191_1446)"/>
<g style="mix-blend-mode:soft-light">
<path fill-rule="evenodd" clip-rule="evenodd" d="M445.509 619.902C445.152 620.223 444.873 620.618 444.697 621.053C444.52 621.488 444.451 621.948 444.495 622.395L445.491 632.413C445.554 633.026 445.948 633.528 446.525 633.728C452.923 635.943 459.83 636.825 466.842 636.322L470.523 636.058C470.992 636.024 471.449 635.826 471.812 635.5C472.175 635.173 472.421 634.74 472.503 634.278L473.153 630.652C474.39 623.743 474.236 616.792 472.7 610.208C472.561 609.614 472.101 609.172 471.497 609.045L461.618 607.008C461.179 606.918 460.713 606.938 460.262 607.068C459.81 607.198 459.388 607.433 459.031 607.753L445.509 619.902ZM446.879 621.938C446.872 621.875 446.882 621.809 446.908 621.747C446.933 621.685 446.973 621.628 447.024 621.583L449.919 618.981L452.192 626.259C452.246 626.424 452.315 626.584 452.397 626.735C451.473 627.459 450.539 628.17 449.595 628.868L447.709 630.265L446.879 621.938ZM449.144 632.019C454.69 633.71 460.594 634.376 466.579 633.984L454.295 628.122C453.181 629.004 452.053 629.868 450.911 630.713L449.144 632.019ZM456.414 626.407L469.051 632.438L464.368 619.26C461.816 621.75 459.162 624.135 456.413 626.408M466.299 617.336L470.851 630.146C471.869 624.245 471.825 618.313 470.721 612.63L469.235 614.248C468.273 615.292 467.294 616.321 466.299 617.336ZM469.123 611.022L467.533 612.751C466.739 613.615 465.933 614.468 465.115 615.31C464.973 615.211 464.821 615.125 464.662 615.053L457.651 612.034L460.546 609.432C460.596 609.387 460.657 609.353 460.721 609.334C460.786 609.316 460.852 609.313 460.915 609.325L469.123 611.022ZM463.299 617.138C460.463 619.938 457.5 622.6 454.412 625.124L451.929 617.175L455.64 613.84L463.299 617.138Z" fill="white"/>
</g>
</g>
<g filter="url(#filter7_dddd_2191_1446)">
<path d="M609.749 373.35L588.933 386.157C587.548 387.008 585.709 387.132 584.225 386.474L561.293 376.311C561.071 376.213 560.86 376.098 560.664 375.969L545.713 366.152C544.62 365.434 544.033 364.314 544.141 363.15L545.968 343.338C545.999 343.002 546.087 342.671 546.23 342.353L551.662 330.225C552.032 329.4 552.75 328.705 553.683 328.271L578.994 316.487L605.632 307.728C606.93 307.301 608.38 307.4 609.541 307.995L621.274 314.013L631.657 319.127C633.189 319.882 633.971 321.348 633.623 322.814L630.598 335.564L625.147 349.614C625.07 349.813 624.972 350.006 624.855 350.191L611.061 372.078C610.747 372.577 610.298 373.012 609.749 373.35Z" fill="url(#paint12_linear_2191_1446)"/>
<g style="mix-blend-mode:soft-light">
<path fill-rule="evenodd" clip-rule="evenodd" d="M553.372 324.688C552.057 325.205 550.864 325.969 549.897 326.912C548.931 327.855 548.222 328.948 547.833 330.094L539.075 355.816C538.543 357.391 539.022 358.95 540.33 359.901C554.855 370.453 572.255 378.087 591.51 382.357L601.619 384.598C602.906 384.884 604.351 384.751 605.69 384.225C607.03 383.698 608.177 382.813 608.923 381.728L614.785 373.215C625.949 356.991 633.456 339.569 636.864 321.969C637.17 320.383 636.45 318.919 634.983 318.129L610.982 305.28C609.914 304.708 608.649 304.392 607.299 304.36C605.949 304.328 604.555 304.581 603.241 305.097L553.372 324.688ZM554.703 330.835C554.759 330.671 554.86 330.515 554.998 330.381C555.137 330.246 555.307 330.138 555.495 330.064L566.171 325.869L563.939 345.773C563.894 346.228 563.896 346.678 563.944 347.12C560.656 348.195 557.357 349.229 554.048 350.222L547.429 352.214L554.703 330.835ZM549.257 357.71C562.107 366.287 577.08 372.593 593.474 376.332L567.421 352.067C563.448 353.386 559.458 354.647 555.454 355.851L549.257 357.71ZM575.021 349.466L601.82 374.431L604.353 337.94C594.717 342.129 584.928 345.975 575.016 349.468M611.691 334.672L609.228 370.141C618.66 356.255 625.299 341.456 628.832 326.442L623.029 329.297C619.276 331.139 615.497 332.931 611.691 334.672ZM626.406 321.181L620.201 324.232C617.102 325.757 613.982 327.245 610.843 328.696C610.577 328.338 610.271 328.005 609.929 327.701L594.687 314.664L605.363 310.469C605.55 310.395 605.75 310.358 605.942 310.363C606.135 310.367 606.316 310.412 606.469 310.493L626.406 321.181ZM603.922 331.817C593.175 336.553 582.249 340.846 571.145 344.696L573.585 322.955L587.273 317.577L603.922 331.817Z" fill="white"/>
</g>
</g>
<path d="M748.383 345.299L822.361 284.961L1254.29 503.166L822.361 746.707L92.5161 595.364L397.987 503.166L443.12 496.004L542.936 436.07L612.743 424.654L634.924 420.372L650.582 408.005H666.892H678.635L681.897 400.87L694.292 403.724L704.731 400.87V390.881L722.052 379.124H748.383V345.299Z" fill="url(#paint13_linear_2191_1446)"/>
<path d="M573.704 377.534L647.682 317.196L656.296 348.162L666.32 345.155L684.864 348.162L688.372 355.68V317.196L1079.61 535.402L647.682 778.942L-82.1636 627.6L223.307 535.402L268.44 528.239L368.257 468.305L438.063 456.889L460.245 452.608L475.902 440.24H492.212H503.955L507.217 433.105L519.613 435.959L530.051 433.105V423.116L547.372 411.36H573.704V377.534Z" fill="url(#paint14_linear_2191_1446)"/>
</g>
<g style="mix-blend-mode:soft-light">
<path d="M815.984 274.222L816.093 274.079C816.195 273.945 816.284 273.806 816.358 273.662L822.841 261.108C823.325 260.171 823.18 259.11 822.456 258.273L815.826 250.608C815.674 250.432 815.499 250.27 815.304 250.123L806.599 243.553C805.824 242.969 804.774 242.659 803.696 242.698L781.519 243.494C781.323 243.501 781.129 243.519 780.937 243.549L758.789 246.973C757.627 247.153 756.632 247.733 756.084 248.55L750.246 257.255L744.923 264.904C744.208 265.932 744.312 267.187 745.191 268.135L752.051 275.535L750.911 275.929L743.817 270.576C743.042 269.991 741.992 269.682 740.914 269.72L718.736 270.516C718.541 270.523 718.346 270.542 718.155 270.571L696.007 273.995C694.845 274.175 693.85 274.755 693.302 275.572L687.464 284.278L682.141 291.927C681.426 292.954 681.53 294.209 682.409 295.157L689.821 303.153L676.355 309.734H654.158L640.94 308.487L641.172 304.426C641.266 302.78 640.305 301.205 638.608 300.221L623.063 291.204C622.707 290.997 622.325 290.82 621.922 290.676L603.942 284.22C602.343 283.646 600.509 283.612 598.876 284.125L565.26 294.69C564.964 294.784 564.677 294.894 564.402 295.02L532.659 309.623C530.994 310.389 529.864 311.701 529.588 313.192L526.647 329.062L524.52 339.411L479.197 378.834L470.745 392.992L460.214 393.369C460.018 393.376 459.824 393.395 459.632 393.424L437.484 396.849C436.322 397.028 435.327 397.608 434.779 398.426L428.942 407.131L423.619 414.78C422.904 415.807 423.008 417.063 423.886 418.01L428.73 423.236L411.818 415.926C409.834 415.069 407.434 415.032 405.409 415.828L386.861 423.12C386.437 423.287 386.036 423.487 385.665 423.719L369.11 434.053C367.638 434.972 366.718 436.324 366.57 437.789L363.514 467.936C363.487 468.202 363.485 468.468 363.51 468.734L366.325 499.413C366.422 500.472 366.922 501.471 367.738 502.292L356.59 507.25L352.173 504.688C352.059 504.622 351.937 504.566 351.808 504.52L346.063 502.457C345.552 502.273 344.966 502.262 344.444 502.426L333.701 505.803C333.607 505.832 333.515 505.868 333.427 505.908L323.284 510.574C322.751 510.819 322.39 511.239 322.302 511.715L321.362 516.786L320.715 519.937L313.577 519.015C312.967 518.936 312.344 519.077 311.883 519.397L306.974 522.812L302.565 525.784C301.973 526.183 301.727 526.811 301.932 527.399L303.672 532.4L306.493 537.725C306.543 537.819 306.604 537.909 306.676 537.994L306.896 538.253L290.145 545.232C288.422 545.95 286.953 546.989 285.87 548.256C284.786 549.522 284.121 550.978 283.934 552.492L281.1 575.265L262.454 592.229L235.6 595.063L234.776 593.701C234.536 593.305 234.097 593.003 233.561 592.868L222.544 590.079C222.447 590.054 222.348 590.035 222.247 590.022L210.623 588.521C210.013 588.442 209.39 588.583 208.929 588.903L204.02 592.318L199.611 595.29C199.019 595.689 198.773 596.317 198.978 596.905L199.656 598.856L185.419 600.358C181.801 603.057 177.212 606.885 173.149 611.006L172.958 610.703C172.911 610.628 172.856 610.556 172.795 610.488L167.449 604.538C167.05 604.094 166.395 603.833 165.699 603.84L159.328 603.91C159.183 603.912 159.037 603.925 158.895 603.95L152.548 605.067C151.984 605.166 151.497 605.443 151.203 605.831L145.155 613.82C145.102 613.891 145.055 613.964 145.016 614.04L140.495 622.79C140.258 623.249 140.301 623.767 140.612 624.198L143.925 628.794L146.779 632.9C147.163 633.451 147.918 633.783 148.723 633.754L155.561 633.506L163.059 632.485C163.191 632.467 163.32 632.439 163.446 632.402L165.668 631.741C165.722 631.781 165.777 631.821 165.834 631.86H848.705V290.427L815.984 274.222Z" fill="white"/>
<path d="M119.631 631.137L123.249 634.485C123.461 634.681 123.763 634.804 124.091 634.828L131.857 635.379C131.921 635.383 131.985 635.384 132.048 635.381L137.585 635.113C137.998 635.093 138.372 634.915 138.582 634.638L140.51 632.099C140.554 632.041 140.591 631.98 140.618 631.916L141.856 629.062C141.967 628.809 141.937 628.531 141.775 628.294L138.438 623.43C138.409 623.387 138.375 623.346 138.338 623.307L134.032 618.81C133.806 618.574 133.455 618.431 133.077 618.42L129.053 618.305L125.491 618.161C125.013 618.141 124.562 618.337 124.332 618.664L122.375 621.442L120.718 624.72C120.689 624.778 120.667 624.838 120.652 624.899L119.359 630.335C119.291 630.62 119.391 630.914 119.631 631.137Z" fill="white"/>
</g>
<g filter="url(#filter8_dddd_2191_1446)">
<path d="M675.449 617.664L637.319 579.343C635.089 577.101 633.833 574.069 633.826 570.906L633.658 495.916C633.657 495.304 633.702 494.692 633.794 494.086L641.814 441.346C642.412 437.413 644.92 434.032 648.51 432.319L681.392 416.63C682.145 416.271 682.933 415.992 683.743 415.796L719.912 407.063C723.13 406.286 726.525 406.872 729.296 408.684L786.314 445.969C786.817 446.298 787.294 446.664 787.741 447.064L839.414 493.227C842.125 495.649 843.592 499.17 843.403 502.801L841.388 541.465L840.13 575.739C839.961 580.343 837.172 584.444 832.952 586.292L797.095 601.993L755.34 614.274C754.604 614.491 753.849 614.636 753.085 614.708L685.086 621.147C681.515 621.485 677.979 620.207 675.449 617.664Z" fill="url(#paint15_linear_2191_1446)"/>
<g style="mix-blend-mode:soft-light">
<path fill-rule="evenodd" clip-rule="evenodd" d="M737.08 400.891C734.27 398.726 730.97 397.287 727.471 396.704C723.972 396.12 720.383 396.41 717.023 397.547L641.573 423.021C636.957 424.591 633.531 428.509 632.594 433.29C622.22 486.347 622.54 540.942 633.535 593.874L639.307 621.662C640.043 625.201 642.021 628.36 644.883 630.568C647.745 632.776 651.303 633.887 654.913 633.7L683.249 632.237C737.244 629.436 790.137 615.884 838.827 592.376C843.214 590.256 846.124 585.94 846.47 581.077L851.935 501.616C852.179 498.081 851.546 494.54 850.094 491.307C848.642 488.074 846.415 485.249 843.61 483.083L737.08 400.891ZM722.939 415.03C723.419 414.869 723.931 414.829 724.431 414.913C724.93 414.997 725.401 415.203 725.801 415.512L748.61 433.107L695.387 463.506C694.178 464.216 693.032 465.027 691.961 465.932C685.491 460.125 679.111 454.218 672.823 448.215L660.233 436.218L722.939 415.03ZM648.314 450.36C641.065 495.941 642.011 542.451 651.109 587.7L683.311 482.969C675.442 475.987 667.699 468.864 660.086 461.602L648.314 450.36ZM698.568 496.185L665.429 603.923L761.234 544.524C739.623 529.363 718.71 513.231 698.559 496.177M777.889 555.926L684.766 613.663C730.842 610.974 776.068 600.082 818.316 581.498L804.453 572.965C795.501 567.438 786.646 561.759 777.889 555.926ZM828.958 566.371L814.141 557.242C806.738 552.684 799.405 548.012 792.146 543.229C792.755 541.963 793.254 540.648 793.639 539.297L809.53 480.1L832.339 497.694C832.74 498.003 833.059 498.406 833.267 498.868C833.475 499.329 833.566 499.835 833.532 500.34L828.958 566.371ZM776.337 532.543C752.07 515.751 728.728 497.746 706.313 478.526L764.449 445.325L793.691 467.882L776.337 532.543Z" fill="white"/>
</g>
</g>
<g filter="url(#filter9_dddd_2191_1446)">
<path d="M641.335 615.007L612.245 633.666C610.543 634.758 608.479 635.134 606.501 634.712L559.616 624.703C559.233 624.622 558.857 624.511 558.49 624.371L526.614 612.247C524.237 611.343 522.462 609.32 521.876 606.845L516.506 584.181C516.383 583.662 516.314 583.132 516.301 582.599L515.722 558.818C515.67 556.703 516.495 554.66 518 553.173L548.99 522.569C549.263 522.299 549.556 522.051 549.867 521.825L585.684 495.759C587.563 494.392 589.961 493.95 592.205 494.558L616.095 501.031L637.345 506.439C640.199 507.166 642.385 509.462 642.971 512.348L647.947 536.873L649.991 564.623C650.027 565.112 650.016 565.604 649.958 566.091L644.811 609.453C644.541 611.731 643.266 613.768 641.335 615.007Z" fill="url(#paint16_linear_2191_1446)"/>
<g style="mix-blend-mode:soft-light">
<path fill-rule="evenodd" clip-rule="evenodd" d="M514.181 547.257C512.449 548.721 511.105 550.589 510.269 552.697C509.432 554.805 509.129 557.087 509.386 559.34L515.131 609.926C515.489 613.022 517.475 615.692 520.337 616.922C552.095 630.56 586.255 637.723 620.816 637.99L638.961 638.131C641.271 638.148 643.512 637.338 645.278 635.847C647.044 634.356 648.218 632.283 648.588 630.002L651.495 612.097C657.026 577.976 655.691 543.095 647.566 509.497C646.833 506.469 644.528 504.069 641.536 503.196L592.616 489.065C590.44 488.436 588.142 488.354 585.925 488.825C583.709 489.297 581.644 490.308 579.912 491.768L514.181 547.257ZM521.11 558.001C521.074 557.679 521.118 557.353 521.238 557.053C521.358 556.752 521.55 556.486 521.797 556.277L535.868 544.396L547.688 581.756C547.969 582.607 548.321 583.433 548.742 584.224C544.24 587.484 539.689 590.675 535.089 593.795L525.894 600.044L521.11 558.001ZM533.124 609.4C560.632 620.078 589.824 625.759 619.328 626.176L558.223 591.927C552.798 595.904 547.302 599.782 541.738 603.56L533.124 609.4ZM568.539 584.175L631.398 619.415L607.198 551.533C594.809 562.994 581.908 573.887 568.533 584.18M616.57 542.662L640.092 608.644C644.626 579.487 643.918 549.755 638.002 520.848L630.801 528.36C626.139 533.209 621.396 537.976 616.57 542.662ZM629.984 512.157L622.281 520.185C618.434 524.197 614.526 528.149 610.558 532.041C609.849 531.49 609.094 531 608.302 530.577L573.452 512.663L587.523 500.782C587.77 500.573 588.065 500.429 588.381 500.361C588.698 500.293 589.026 500.304 589.337 500.394L629.984 512.157ZM601.748 540.479C587.981 553.379 573.582 565.538 558.548 576.954L545.64 536.146L563.68 520.914L601.748 540.479Z" fill="white"/>
</g>
</g>
<g filter="url(#filter10_dddd_2191_1446)">
<path d="M242.71 624.188L232.05 609.674C231.426 608.825 231.163 607.764 231.317 606.722L234.98 582.012C235.01 581.81 235.056 581.61 235.116 581.415L240.373 564.44C240.765 563.175 241.759 562.185 243.026 561.799L254.636 558.261C254.901 558.18 255.175 558.127 255.451 558.103L267.798 557.02C268.897 556.923 269.986 557.285 270.809 558.019L287.742 573.128C287.892 573.261 288.031 573.406 288.158 573.56L302.89 591.328C303.663 592.26 303.972 593.493 303.73 594.679L301.149 607.316L299.035 618.543C298.751 620.052 297.629 621.264 296.147 621.663L283.557 625.058L269.194 627.033C268.941 627.067 268.685 627.078 268.43 627.064L245.712 625.813C244.518 625.747 243.417 625.151 242.71 624.188Z" fill="url(#paint17_linear_2191_1446)"/>
<g style="mix-blend-mode:soft-light">
<path fill-rule="evenodd" clip-rule="evenodd" d="M273.759 555.838C272.941 554.985 271.925 554.348 270.802 553.982C269.678 553.616 268.482 553.534 267.318 553.742L241.202 558.392C239.603 558.68 238.281 559.801 237.735 561.329C231.687 578.292 229.085 596.292 230.083 614.273L230.606 623.713C230.673 624.915 231.168 626.053 232.001 626.923C232.834 627.792 233.951 628.334 235.149 628.452L244.556 629.375C262.481 631.129 280.576 629.288 297.78 623.959C299.331 623.478 300.503 622.2 300.859 620.616L306.599 594.712C306.854 593.56 306.822 592.362 306.503 591.225C306.185 590.088 305.592 589.047 304.775 588.194L273.759 555.838ZM268.4 559.794C268.566 559.765 268.737 559.777 268.897 559.829C269.058 559.882 269.203 559.973 269.319 560.095L275.96 567.021L256.921 574.396C256.487 574.57 256.07 574.78 255.672 575.025C253.829 572.792 252.02 570.53 250.246 568.24L246.694 563.664L268.4 559.794ZM242.067 567.732C237.419 582.387 235.424 597.754 236.177 613.11L251.978 580.209C249.732 577.519 247.535 574.788 245.387 572.019L242.067 567.732ZM256.349 585.318L240.09 619.165L274.594 604.349C268.227 598.283 262.138 591.932 256.346 585.315M279.515 608.93L245.977 623.332C261.288 624.731 276.725 623.385 291.563 619.358L287.42 615.86C284.745 613.596 282.11 611.286 279.515 608.93ZM295.819 614.903L291.391 611.161C289.178 609.293 286.995 607.39 284.84 605.455C285.104 605.068 285.334 604.66 285.527 604.234L293.697 585.522L300.338 592.449C300.455 592.57 300.54 592.719 300.586 592.881C300.631 593.043 300.636 593.215 300.6 593.379L295.819 614.903ZM280.163 601.151C273.002 594.416 266.206 587.328 259.775 579.886L280.572 571.832L289.086 580.712L280.163 601.151Z" fill="white"/>
</g>
</g>
<g style="mix-blend-mode:soft-light">
<path fill-rule="evenodd" clip-rule="evenodd" d="M273.761 555.837C272.943 554.985 271.927 554.347 270.804 553.982C269.68 553.616 268.484 553.533 267.32 553.741L241.204 558.391C239.605 558.68 238.282 559.8 237.737 561.329C231.689 578.292 229.087 596.291 230.085 614.272L230.608 623.712C230.675 624.914 231.17 626.053 232.003 626.922C232.836 627.791 233.953 628.334 235.151 628.451L244.558 629.374C262.483 631.129 280.578 629.288 297.782 623.958C299.333 623.477 300.505 622.2 300.86 620.615L306.601 594.712C306.856 593.559 306.823 592.361 306.505 591.224C306.187 590.087 305.594 589.047 304.777 588.194L273.761 555.837ZM268.402 559.794C268.568 559.764 268.739 559.776 268.899 559.829C269.06 559.881 269.205 559.973 269.321 560.094L275.962 567.021L256.923 574.396C256.489 574.569 256.072 574.78 255.674 575.025C253.831 572.791 252.022 570.529 250.248 568.24L246.696 563.664L268.402 559.794ZM242.069 567.731C237.421 582.386 235.426 597.754 236.179 613.11L251.98 580.208C249.734 577.518 247.537 574.788 245.389 572.018L242.069 567.731ZM256.35 585.318L240.092 619.164L274.596 604.348C268.229 598.282 262.14 591.932 256.348 585.315M279.517 608.93L245.979 623.331C261.29 624.73 276.727 623.385 291.565 619.358L287.422 615.86C284.747 613.595 282.112 611.285 279.517 608.93ZM295.821 614.903L291.393 611.161C289.18 609.292 286.997 607.39 284.842 605.454C285.106 605.068 285.336 604.659 285.529 604.233L293.699 585.521L300.34 592.448C300.457 592.57 300.542 592.718 300.587 592.881C300.633 593.043 300.638 593.214 300.602 593.379L295.821 614.903ZM280.165 601.15C273.004 594.416 266.208 587.327 259.777 579.885L280.574 571.831L289.088 580.711L280.165 601.15Z" fill="white"/>
</g>
</g>
<defs>
<filter id="filter0_dddd_2191_1446" x="621.206" y="127.874" width="327.641" height="325.058" filterUnits="userSpaceOnUse" color-interpolation-filters="sRGB">
<feFlood flood-opacity="0" result="BackgroundImageFix"/>
<feColorMatrix in="SourceAlpha" type="matrix" values="0 0 0 0 0 0 0 0 0 0 0 0 0 0 0 0 0 0 127 0" result="hardAlpha"/>
<feOffset/>
<feGaussianBlur stdDeviation="4.21237"/>
<feColorMatrix type="matrix" values="0 0 0 0 0.490196 0 0 0 0 0.682353 0 0 0 0 0.831373 0 0 0 1 0"/>
<feBlend mode="normal" in2="BackgroundImageFix" result="effect1_dropShadow_2191_1446"/>
<feColorMatrix in="SourceAlpha" type="matrix" values="0 0 0 0 0 0 0 0 0 0 0 0 0 0 0 0 0 0 127 0" result="hardAlpha"/>
<feOffset/>
<feGaussianBlur stdDeviation="8.42474"/>
<feColorMatrix type="matrix" values="0 0 0 0 0.490196 0 0 0 0 0.682353 0 0 0 0 0.831373 0 0 0 1 0"/>
<feBlend mode="normal" in2="effect1_dropShadow_2191_1446" result="effect2_dropShadow_2191_1446"/>
<feColorMatrix in="SourceAlpha" type="matrix" values="0 0 0 0 0 0 0 0 0 0 0 0 0 0 0 0 0 0 127 0" result="hardAlpha"/>
<feOffset/>
<feGaussianBlur stdDeviation="29.4866"/>
<feColorMatrix type="matrix" values="0 0 0 0 0.490196 0 0 0 0 0.682353 0 0 0 0 0.831373 0 0 0 1 0"/>
<feBlend mode="normal" in2="effect2_dropShadow_2191_1446" result="effect3_dropShadow_2191_1446"/>
<feColorMatrix in="SourceAlpha" type="matrix" values="0 0 0 0 0 0 0 0 0 0 0 0 0 0 0 0 0 0 127 0" result="hardAlpha"/>
<feOffset/>
<feGaussianBlur stdDeviation="58.9732"/>
<feColorMatrix type="matrix" values="0 0 0 0 0.490196 0 0 0 0 0.682353 0 0 0 0 0.831373 0 0 0 1 0"/>
<feBlend mode="normal" in2="effect3_dropShadow_2191_1446" result="effect4_dropShadow_2191_1446"/>
<feBlend mode="normal" in="SourceGraphic" in2="effect4_dropShadow_2191_1446" result="shape"/>
</filter>
<filter id="filter1_dddd_2191_1446" x="401.009" y="163.784" width="379.359" height="364.929" filterUnits="userSpaceOnUse" color-interpolation-filters="sRGB">
<feFlood flood-opacity="0" result="BackgroundImageFix"/>
<feColorMatrix in="SourceAlpha" type="matrix" values="0 0 0 0 0 0 0 0 0 0 0 0 0 0 0 0 0 0 127 0" result="hardAlpha"/>
<feOffset/>
<feGaussianBlur stdDeviation="4.21237"/>
<feColorMatrix type="matrix" values="0 0 0 0 0.490196 0 0 0 0 0.682353 0 0 0 0 0.831373 0 0 0 1 0"/>
<feBlend mode="normal" in2="BackgroundImageFix" result="effect1_dropShadow_2191_1446"/>
<feColorMatrix in="SourceAlpha" type="matrix" values="0 0 0 0 0 0 0 0 0 0 0 0 0 0 0 0 0 0 127 0" result="hardAlpha"/>
<feOffset/>
<feGaussianBlur stdDeviation="8.42474"/>
<feColorMatrix type="matrix" values="0 0 0 0 0.490196 0 0 0 0 0.682353 0 0 0 0 0.831373 0 0 0 1 0"/>
<feBlend mode="normal" in2="effect1_dropShadow_2191_1446" result="effect2_dropShadow_2191_1446"/>
<feColorMatrix in="SourceAlpha" type="matrix" values="0 0 0 0 0 0 0 0 0 0 0 0 0 0 0 0 0 0 127 0" result="hardAlpha"/>
<feOffset/>
<feGaussianBlur stdDeviation="29.4866"/>
<feColorMatrix type="matrix" values="0 0 0 0 0.490196 0 0 0 0 0.682353 0 0 0 0 0.831373 0 0 0 1 0"/>
<feBlend mode="normal" in2="effect2_dropShadow_2191_1446" result="effect3_dropShadow_2191_1446"/>
<feColorMatrix in="SourceAlpha" type="matrix" values="0 0 0 0 0 0 0 0 0 0 0 0 0 0 0 0 0 0 127 0" result="hardAlpha"/>
<feOffset/>
<feGaussianBlur stdDeviation="58.9732"/>
<feColorMatrix type="matrix" values="0 0 0 0 0.490196 0 0 0 0 0.682353 0 0 0 0 0.831373 0 0 0 1 0"/>
<feBlend mode="normal" in2="effect3_dropShadow_2191_1446" result="effect4_dropShadow_2191_1446"/>
<feBlend mode="normal" in="SourceGraphic" in2="effect4_dropShadow_2191_1446" result="shape"/>
</filter>
<filter id="filter2_dddd_2191_1446" x="621.208" y="127.874" width="327.641" height="325.058" filterUnits="userSpaceOnUse" color-interpolation-filters="sRGB">
<feFlood flood-opacity="0" result="BackgroundImageFix"/>
<feColorMatrix in="SourceAlpha" type="matrix" values="0 0 0 0 0 0 0 0 0 0 0 0 0 0 0 0 0 0 127 0" result="hardAlpha"/>
<feOffset/>
<feGaussianBlur stdDeviation="4.21237"/>
<feColorMatrix type="matrix" values="0 0 0 0 0.490196 0 0 0 0 0.682353 0 0 0 0 0.831373 0 0 0 1 0"/>
<feBlend mode="normal" in2="BackgroundImageFix" result="effect1_dropShadow_2191_1446"/>
<feColorMatrix in="SourceAlpha" type="matrix" values="0 0 0 0 0 0 0 0 0 0 0 0 0 0 0 0 0 0 127 0" result="hardAlpha"/>
<feOffset/>
<feGaussianBlur stdDeviation="8.42474"/>
<feColorMatrix type="matrix" values="0 0 0 0 0.490196 0 0 0 0 0.682353 0 0 0 0 0.831373 0 0 0 1 0"/>
<feBlend mode="normal" in2="effect1_dropShadow_2191_1446" result="effect2_dropShadow_2191_1446"/>
<feColorMatrix in="SourceAlpha" type="matrix" values="0 0 0 0 0 0 0 0 0 0 0 0 0 0 0 0 0 0 127 0" result="hardAlpha"/>
<feOffset/>
<feGaussianBlur stdDeviation="29.4866"/>
<feColorMatrix type="matrix" values="0 0 0 0 0.490196 0 0 0 0 0.682353 0 0 0 0 0.831373 0 0 0 1 0"/>
<feBlend mode="normal" in2="effect2_dropShadow_2191_1446" result="effect3_dropShadow_2191_1446"/>
<feColorMatrix in="SourceAlpha" type="matrix" values="0 0 0 0 0 0 0 0 0 0 0 0 0 0 0 0 0 0 127 0" result="hardAlpha"/>
<feOffset/>
<feGaussianBlur stdDeviation="58.9732"/>
<feColorMatrix type="matrix" values="0 0 0 0 0.490196 0 0 0 0 0.682353 0 0 0 0 0.831373 0 0 0 1 0"/>
<feBlend mode="normal" in2="effect3_dropShadow_2191_1446" result="effect4_dropShadow_2191_1446"/>
<feBlend mode="normal" in="SourceGraphic" in2="effect4_dropShadow_2191_1446" result="shape"/>
</filter>
<filter id="filter3_dddd_2191_1446" x="563.118" y="245.474" width="306.58" height="306.147" filterUnits="userSpaceOnUse" color-interpolation-filters="sRGB">
<feFlood flood-opacity="0" result="BackgroundImageFix"/>
<feColorMatrix in="SourceAlpha" type="matrix" values="0 0 0 0 0 0 0 0 0 0 0 0 0 0 0 0 0 0 127 0" result="hardAlpha"/>
<feOffset/>
<feGaussianBlur stdDeviation="4.21237"/>
<feColorMatrix type="matrix" values="0 0 0 0 0.490196 0 0 0 0 0.682353 0 0 0 0 0.831373 0 0 0 1 0"/>
<feBlend mode="normal" in2="BackgroundImageFix" result="effect1_dropShadow_2191_1446"/>
<feColorMatrix in="SourceAlpha" type="matrix" values="0 0 0 0 0 0 0 0 0 0 0 0 0 0 0 0 0 0 127 0" result="hardAlpha"/>
<feOffset/>
<feGaussianBlur stdDeviation="8.42474"/>
<feColorMatrix type="matrix" values="0 0 0 0 0.490196 0 0 0 0 0.682353 0 0 0 0 0.831373 0 0 0 1 0"/>
<feBlend mode="normal" in2="effect1_dropShadow_2191_1446" result="effect2_dropShadow_2191_1446"/>
<feColorMatrix in="SourceAlpha" type="matrix" values="0 0 0 0 0 0 0 0 0 0 0 0 0 0 0 0 0 0 127 0" result="hardAlpha"/>
<feOffset/>
<feGaussianBlur stdDeviation="29.4866"/>
<feColorMatrix type="matrix" values="0 0 0 0 0.490196 0 0 0 0 0.682353 0 0 0 0 0.831373 0 0 0 1 0"/>
<feBlend mode="normal" in2="effect2_dropShadow_2191_1446" result="effect3_dropShadow_2191_1446"/>
<feColorMatrix in="SourceAlpha" type="matrix" values="0 0 0 0 0 0 0 0 0 0 0 0 0 0 0 0 0 0 127 0" result="hardAlpha"/>
<feOffset/>
<feGaussianBlur stdDeviation="58.9732"/>
<feColorMatrix type="matrix" values="0 0 0 0 0.490196 0 0 0 0 0.682353 0 0 0 0 0.831373 0 0 0 1 0"/>
<feBlend mode="normal" in2="effect3_dropShadow_2191_1446" result="effect4_dropShadow_2191_1446"/>
<feBlend mode="normal" in="SourceGraphic" in2="effect4_dropShadow_2191_1446" result="shape"/>
</filter>
<filter id="filter4_dddd_2191_1446" x="340.435" y="461.474" width="306.58" height="306.147" filterUnits="userSpaceOnUse" color-interpolation-filters="sRGB">
<feFlood flood-opacity="0" result="BackgroundImageFix"/>
<feColorMatrix in="SourceAlpha" type="matrix" values="0 0 0 0 0 0 0 0 0 0 0 0 0 0 0 0 0 0 127 0" result="hardAlpha"/>
<feOffset/>
<feGaussianBlur stdDeviation="4.21237"/>
<feColorMatrix type="matrix" values="0 0 0 0 0.490196 0 0 0 0 0.682353 0 0 0 0 0.831373 0 0 0 1 0"/>
<feBlend mode="normal" in2="BackgroundImageFix" result="effect1_dropShadow_2191_1446"/>
<feColorMatrix in="SourceAlpha" type="matrix" values="0 0 0 0 0 0 0 0 0 0 0 0 0 0 0 0 0 0 127 0" result="hardAlpha"/>
<feOffset/>
<feGaussianBlur stdDeviation="8.42474"/>
<feColorMatrix type="matrix" values="0 0 0 0 0.490196 0 0 0 0 0.682353 0 0 0 0 0.831373 0 0 0 1 0"/>
<feBlend mode="normal" in2="effect1_dropShadow_2191_1446" result="effect2_dropShadow_2191_1446"/>
<feColorMatrix in="SourceAlpha" type="matrix" values="0 0 0 0 0 0 0 0 0 0 0 0 0 0 0 0 0 0 127 0" result="hardAlpha"/>
<feOffset/>
<feGaussianBlur stdDeviation="29.4866"/>
<feColorMatrix type="matrix" values="0 0 0 0 0.490196 0 0 0 0 0.682353 0 0 0 0 0.831373 0 0 0 1 0"/>
<feBlend mode="normal" in2="effect2_dropShadow_2191_1446" result="effect3_dropShadow_2191_1446"/>
<feColorMatrix in="SourceAlpha" type="matrix" values="0 0 0 0 0 0 0 0 0 0 0 0 0 0 0 0 0 0 127 0" result="hardAlpha"/>
<feOffset/>
<feGaussianBlur stdDeviation="58.9732"/>
<feColorMatrix type="matrix" values="0 0 0 0 0.490196 0 0 0 0 0.682353 0 0 0 0 0.831373 0 0 0 1 0"/>
<feBlend mode="normal" in2="effect3_dropShadow_2191_1446" result="effect4_dropShadow_2191_1446"/>
<feBlend mode="normal" in="SourceGraphic" in2="effect4_dropShadow_2191_1446" result="shape"/>
</filter>
<filter id="filter5_dddd_2191_1446" x="363.378" y="463.093" width="307.971" height="307.708" filterUnits="userSpaceOnUse" color-interpolation-filters="sRGB">
<feFlood flood-opacity="0" result="BackgroundImageFix"/>
<feColorMatrix in="SourceAlpha" type="matrix" values="0 0 0 0 0 0 0 0 0 0 0 0 0 0 0 0 0 0 127 0" result="hardAlpha"/>
<feOffset/>
<feGaussianBlur stdDeviation="4.21237"/>
<feColorMatrix type="matrix" values="0 0 0 0 0.490196 0 0 0 0 0.682353 0 0 0 0 0.831373 0 0 0 1 0"/>
<feBlend mode="normal" in2="BackgroundImageFix" result="effect1_dropShadow_2191_1446"/>
<feColorMatrix in="SourceAlpha" type="matrix" values="0 0 0 0 0 0 0 0 0 0 0 0 0 0 0 0 0 0 127 0" result="hardAlpha"/>
<feOffset/>
<feGaussianBlur stdDeviation="8.42474"/>
<feColorMatrix type="matrix" values="0 0 0 0 0.490196 0 0 0 0 0.682353 0 0 0 0 0.831373 0 0 0 1 0"/>
<feBlend mode="normal" in2="effect1_dropShadow_2191_1446" result="effect2_dropShadow_2191_1446"/>
<feColorMatrix in="SourceAlpha" type="matrix" values="0 0 0 0 0 0 0 0 0 0 0 0 0 0 0 0 0 0 127 0" result="hardAlpha"/>
<feOffset/>
<feGaussianBlur stdDeviation="29.4866"/>
<feColorMatrix type="matrix" values="0 0 0 0 0.490196 0 0 0 0 0.682353 0 0 0 0 0.831373 0 0 0 1 0"/>
<feBlend mode="normal" in2="effect2_dropShadow_2191_1446" result="effect3_dropShadow_2191_1446"/>
<feColorMatrix in="SourceAlpha" type="matrix" values="0 0 0 0 0 0 0 0 0 0 0 0 0 0 0 0 0 0 127 0" result="hardAlpha"/>
<feOffset/>
<feGaussianBlur stdDeviation="58.9732"/>
<feColorMatrix type="matrix" values="0 0 0 0 0.490196 0 0 0 0 0.682353 0 0 0 0 0.831373 0 0 0 1 0"/>
<feBlend mode="normal" in2="effect3_dropShadow_2191_1446" result="effect4_dropShadow_2191_1446"/>
<feBlend mode="normal" in="SourceGraphic" in2="effect4_dropShadow_2191_1446" result="shape"/>
</filter>
<filter id="filter6_dddd_2191_1446" x="316.194" y="478.9" width="289.826" height="289.458" filterUnits="userSpaceOnUse" color-interpolation-filters="sRGB">
<feFlood flood-opacity="0" result="BackgroundImageFix"/>
<feColorMatrix in="SourceAlpha" type="matrix" values="0 0 0 0 0 0 0 0 0 0 0 0 0 0 0 0 0 0 127 0" result="hardAlpha"/>
<feOffset/>
<feGaussianBlur stdDeviation="4.21237"/>
<feColorMatrix type="matrix" values="0 0 0 0 0.490196 0 0 0 0 0.682353 0 0 0 0 0.831373 0 0 0 1 0"/>
<feBlend mode="normal" in2="BackgroundImageFix" result="effect1_dropShadow_2191_1446"/>
<feColorMatrix in="SourceAlpha" type="matrix" values="0 0 0 0 0 0 0 0 0 0 0 0 0 0 0 0 0 0 127 0" result="hardAlpha"/>
<feOffset/>
<feGaussianBlur stdDeviation="8.42474"/>
<feColorMatrix type="matrix" values="0 0 0 0 0.490196 0 0 0 0 0.682353 0 0 0 0 0.831373 0 0 0 1 0"/>
<feBlend mode="normal" in2="effect1_dropShadow_2191_1446" result="effect2_dropShadow_2191_1446"/>
<feColorMatrix in="SourceAlpha" type="matrix" values="0 0 0 0 0 0 0 0 0 0 0 0 0 0 0 0 0 0 127 0" result="hardAlpha"/>
<feOffset/>
<feGaussianBlur stdDeviation="29.4866"/>
<feColorMatrix type="matrix" values="0 0 0 0 0.490196 0 0 0 0 0.682353 0 0 0 0 0.831373 0 0 0 1 0"/>
<feBlend mode="normal" in2="effect2_dropShadow_2191_1446" result="effect3_dropShadow_2191_1446"/>
<feColorMatrix in="SourceAlpha" type="matrix" values="0 0 0 0 0 0 0 0 0 0 0 0 0 0 0 0 0 0 127 0" result="hardAlpha"/>
<feOffset/>
<feGaussianBlur stdDeviation="58.9732"/>
<feColorMatrix type="matrix" values="0 0 0 0 0.490196 0 0 0 0 0.682353 0 0 0 0 0.831373 0 0 0 1 0"/>
<feBlend mode="normal" in2="effect3_dropShadow_2191_1446" result="effect4_dropShadow_2191_1446"/>
<feBlend mode="normal" in="SourceGraphic" in2="effect4_dropShadow_2191_1446" result="shape"/>
</filter>
<filter id="filter7_dddd_2191_1446" x="401.007" y="163.784" width="379.359" height="364.929" filterUnits="userSpaceOnUse" color-interpolation-filters="sRGB">
<feFlood flood-opacity="0" result="BackgroundImageFix"/>
<feColorMatrix in="SourceAlpha" type="matrix" values="0 0 0 0 0 0 0 0 0 0 0 0 0 0 0 0 0 0 127 0" result="hardAlpha"/>
<feOffset/>
<feGaussianBlur stdDeviation="4.21237"/>
<feColorMatrix type="matrix" values="0 0 0 0 0.490196 0 0 0 0 0.682353 0 0 0 0 0.831373 0 0 0 1 0"/>
<feBlend mode="normal" in2="BackgroundImageFix" result="effect1_dropShadow_2191_1446"/>
<feColorMatrix in="SourceAlpha" type="matrix" values="0 0 0 0 0 0 0 0 0 0 0 0 0 0 0 0 0 0 127 0" result="hardAlpha"/>
<feOffset/>
<feGaussianBlur stdDeviation="8.42474"/>
<feColorMatrix type="matrix" values="0 0 0 0 0.490196 0 0 0 0 0.682353 0 0 0 0 0.831373 0 0 0 1 0"/>
<feBlend mode="normal" in2="effect1_dropShadow_2191_1446" result="effect2_dropShadow_2191_1446"/>
<feColorMatrix in="SourceAlpha" type="matrix" values="0 0 0 0 0 0 0 0 0 0 0 0 0 0 0 0 0 0 127 0" result="hardAlpha"/>
<feOffset/>
<feGaussianBlur stdDeviation="29.4866"/>
<feColorMatrix type="matrix" values="0 0 0 0 0.490196 0 0 0 0 0.682353 0 0 0 0 0.831373 0 0 0 1 0"/>
<feBlend mode="normal" in2="effect2_dropShadow_2191_1446" result="effect3_dropShadow_2191_1446"/>
<feColorMatrix in="SourceAlpha" type="matrix" values="0 0 0 0 0 0 0 0 0 0 0 0 0 0 0 0 0 0 127 0" result="hardAlpha"/>
<feOffset/>
<feGaussianBlur stdDeviation="58.9732"/>
<feColorMatrix type="matrix" values="0 0 0 0 0.490196 0 0 0 0 0.682353 0 0 0 0 0.831373 0 0 0 1 0"/>
<feBlend mode="normal" in2="effect3_dropShadow_2191_1446" result="effect4_dropShadow_2191_1446"/>
<feBlend mode="normal" in="SourceGraphic" in2="effect4_dropShadow_2191_1446" result="shape"/>
</filter>
<filter id="filter8_dddd_2191_1446" x="163.292" y="-33.9956" width="1122.53" height="1122.53" filterUnits="userSpaceOnUse" color-interpolation-filters="sRGB">
<feFlood flood-opacity="0" result="BackgroundImageFix"/>
<feColorMatrix in="SourceAlpha" type="matrix" values="0 0 0 0 0 0 0 0 0 0 0 0 0 0 0 0 0 0 127 0" result="hardAlpha"/>
<feOffset/>
<feGaussianBlur stdDeviation="12.6454"/>
<feColorMatrix type="matrix" values="0 0 0 0 0.490196 0 0 0 0 0.682353 0 0 0 0 0.831373 0 0 0 1 0"/>
<feBlend mode="normal" in2="BackgroundImageFix" result="effect1_dropShadow_2191_1446"/>
<feColorMatrix in="SourceAlpha" type="matrix" values="0 0 0 0 0 0 0 0 0 0 0 0 0 0 0 0 0 0 127 0" result="hardAlpha"/>
<feOffset/>
<feGaussianBlur stdDeviation="25.2908"/>
<feColorMatrix type="matrix" values="0 0 0 0 0.490196 0 0 0 0 0.682353 0 0 0 0 0.831373 0 0 0 1 0"/>
<feBlend mode="normal" in2="effect1_dropShadow_2191_1446" result="effect2_dropShadow_2191_1446"/>
<feColorMatrix in="SourceAlpha" type="matrix" values="0 0 0 0 0 0 0 0 0 0 0 0 0 0 0 0 0 0 127 0" result="hardAlpha"/>
<feOffset/>
<feGaussianBlur stdDeviation="88.5179"/>
<feColorMatrix type="matrix" values="0 0 0 0 0.490196 0 0 0 0 0.682353 0 0 0 0 0.831373 0 0 0 1 0"/>
<feBlend mode="normal" in2="effect2_dropShadow_2191_1446" result="effect3_dropShadow_2191_1446"/>
<feColorMatrix in="SourceAlpha" type="matrix" values="0 0 0 0 0 0 0 0 0 0 0 0 0 0 0 0 0 0 127 0" result="hardAlpha"/>
<feOffset/>
<feGaussianBlur stdDeviation="177.036"/>
<feColorMatrix type="matrix" values="0 0 0 0 0.490196 0 0 0 0 0.682353 0 0 0 0 0.831373 0 0 0 1 0"/>
<feBlend mode="normal" in2="effect3_dropShadow_2191_1446" result="effect4_dropShadow_2191_1446"/>
<feBlend mode="normal" in="SourceGraphic" in2="effect4_dropShadow_2191_1446" result="shape"/>
</filter>
<filter id="filter9_dddd_2191_1446" x="232.021" y="212.678" width="718.897" height="718.897" filterUnits="userSpaceOnUse" color-interpolation-filters="sRGB">
<feFlood flood-opacity="0" result="BackgroundImageFix"/>
<feColorMatrix in="SourceAlpha" type="matrix" values="0 0 0 0 0 0 0 0 0 0 0 0 0 0 0 0 0 0 127 0" result="hardAlpha"/>
<feOffset/>
<feGaussianBlur stdDeviation="8.08434"/>
<feColorMatrix type="matrix" values="0 0 0 0 0.490196 0 0 0 0 0.682353 0 0 0 0 0.831373 0 0 0 1 0"/>
<feBlend mode="normal" in2="BackgroundImageFix" result="effect1_dropShadow_2191_1446"/>
<feColorMatrix in="SourceAlpha" type="matrix" values="0 0 0 0 0 0 0 0 0 0 0 0 0 0 0 0 0 0 127 0" result="hardAlpha"/>
<feOffset/>
<feGaussianBlur stdDeviation="16.1687"/>
<feColorMatrix type="matrix" values="0 0 0 0 0.490196 0 0 0 0 0.682353 0 0 0 0 0.831373 0 0 0 1 0"/>
<feBlend mode="normal" in2="effect1_dropShadow_2191_1446" result="effect2_dropShadow_2191_1446"/>
<feColorMatrix in="SourceAlpha" type="matrix" values="0 0 0 0 0 0 0 0 0 0 0 0 0 0 0 0 0 0 127 0" result="hardAlpha"/>
<feOffset/>
<feGaussianBlur stdDeviation="56.5904"/>
<feColorMatrix type="matrix" values="0 0 0 0 0.490196 0 0 0 0 0.682353 0 0 0 0 0.831373 0 0 0 1 0"/>
<feBlend mode="normal" in2="effect2_dropShadow_2191_1446" result="effect3_dropShadow_2191_1446"/>
<feColorMatrix in="SourceAlpha" type="matrix" values="0 0 0 0 0 0 0 0 0 0 0 0 0 0 0 0 0 0 127 0" result="hardAlpha"/>
<feOffset/>
<feGaussianBlur stdDeviation="113.181"/>
<feColorMatrix type="matrix" values="0 0 0 0 0.490196 0 0 0 0 0.682353 0 0 0 0 0.831373 0 0 0 1 0"/>
<feBlend mode="normal" in2="effect3_dropShadow_2191_1446" result="effect4_dropShadow_2191_1446"/>
<feBlend mode="normal" in="SourceGraphic" in2="effect4_dropShadow_2191_1446" result="shape"/>
</filter>
<filter id="filter10_dddd_2191_1446" x="75.8466" y="409.324" width="375.045" height="375.046" filterUnits="userSpaceOnUse" color-interpolation-filters="sRGB">
<feFlood flood-opacity="0" result="BackgroundImageFix"/>
<feColorMatrix in="SourceAlpha" type="matrix" values="0 0 0 0 0 0 0 0 0 0 0 0 0 0 0 0 0 0 127 0" result="hardAlpha"/>
<feOffset/>
<feGaussianBlur stdDeviation="4.21237"/>
<feColorMatrix type="matrix" values="0 0 0 0 0.490196 0 0 0 0 0.682353 0 0 0 0 0.831373 0 0 0 1 0"/>
<feBlend mode="normal" in2="BackgroundImageFix" result="effect1_dropShadow_2191_1446"/>
<feColorMatrix in="SourceAlpha" type="matrix" values="0 0 0 0 0 0 0 0 0 0 0 0 0 0 0 0 0 0 127 0" result="hardAlpha"/>
<feOffset/>
<feGaussianBlur stdDeviation="8.42474"/>
<feColorMatrix type="matrix" values="0 0 0 0 0.490196 0 0 0 0 0.682353 0 0 0 0 0.831373 0 0 0 1 0"/>
<feBlend mode="normal" in2="effect1_dropShadow_2191_1446" result="effect2_dropShadow_2191_1446"/>
<feColorMatrix in="SourceAlpha" type="matrix" values="0 0 0 0 0 0 0 0 0 0 0 0 0 0 0 0 0 0 127 0" result="hardAlpha"/>
<feOffset/>
<feGaussianBlur stdDeviation="29.4866"/>
<feColorMatrix type="matrix" values="0 0 0 0 0.490196 0 0 0 0 0.682353 0 0 0 0 0.831373 0 0 0 1 0"/>
<feBlend mode="normal" in2="effect2_dropShadow_2191_1446" result="effect3_dropShadow_2191_1446"/>
<feColorMatrix in="SourceAlpha" type="matrix" values="0 0 0 0 0 0 0 0 0 0 0 0 0 0 0 0 0 0 127 0" result="hardAlpha"/>
<feOffset/>
<feGaussianBlur stdDeviation="58.9732"/>
<feColorMatrix type="matrix" values="0 0 0 0 0.490196 0 0 0 0 0.682353 0 0 0 0 0.831373 0 0 0 1 0"/>
<feBlend mode="normal" in2="effect3_dropShadow_2191_1446" result="effect4_dropShadow_2191_1446"/>
<feBlend mode="normal" in="SourceGraphic" in2="effect4_dropShadow_2191_1446" result="shape"/>
</filter>
<linearGradient id="paint0_linear_2191_1446" x1="781.949" y1="263.503" x2="790.278" y2="321.798" gradientUnits="userSpaceOnUse">
<stop stop-color="white"/>
<stop offset="1" stop-color="#C4E4FD"/>
</linearGradient>
<linearGradient id="paint1_linear_2191_1446" x1="580.484" y1="315.613" x2="605.369" y2="381.253" gradientUnits="userSpaceOnUse">
<stop stop-color="white"/>
<stop offset="1" stop-color="#C4E4FD"/>
</linearGradient>
<linearGradient id="paint2_linear_2191_1446" x1="617.657" y1="315.619" x2="506.312" y2="711.359" gradientUnits="userSpaceOnUse">
<stop stop-color="white"/>
<stop offset="1" stop-color="#C4E4FD"/>
</linearGradient>
<linearGradient id="paint3_linear_2191_1446" x1="617.657" y1="315.619" x2="506.312" y2="711.359" gradientUnits="userSpaceOnUse">
<stop stop-color="white"/>
<stop offset="1" stop-color="#C4E4FD"/>
</linearGradient>
<linearGradient id="paint4_linear_2191_1446" x1="617.657" y1="315.619" x2="506.312" y2="711.359" gradientUnits="userSpaceOnUse">
<stop stop-color="white"/>
<stop offset="1" stop-color="#C4E4FD"/>
</linearGradient>
<linearGradient id="paint5_linear_2191_1446" x1="617.657" y1="315.619" x2="506.312" y2="711.359" gradientUnits="userSpaceOnUse">
<stop stop-color="white"/>
<stop offset="1" stop-color="#C4E4FD"/>
</linearGradient>
<linearGradient id="paint6_linear_2191_1446" x1="358.844" y1="427.948" x2="358.844" y2="695.606" gradientUnits="userSpaceOnUse">
<stop stop-color="#66A5D5"/>
<stop offset="1" stop-color="#D9D9D9" stop-opacity="0"/>
</linearGradient>
<linearGradient id="paint7_linear_2191_1446" x1="781.952" y1="263.503" x2="790.281" y2="321.798" gradientUnits="userSpaceOnUse">
<stop stop-color="white"/>
<stop offset="1" stop-color="#C4E4FD"/>
</linearGradient>
<linearGradient id="paint8_linear_2191_1446" x1="726.542" y1="384.339" x2="705.377" y2="415.846" gradientUnits="userSpaceOnUse">
<stop stop-color="white"/>
<stop offset="1" stop-color="#C4E4FD"/>
</linearGradient>
<linearGradient id="paint9_linear_2191_1446" x1="503.859" y1="600.339" x2="482.693" y2="631.846" gradientUnits="userSpaceOnUse">
<stop stop-color="white"/>
<stop offset="1" stop-color="#C4E4FD"/>
</linearGradient>
<linearGradient id="paint10_linear_2191_1446" x1="506.264" y1="603.479" x2="531.214" y2="632.083" gradientUnits="userSpaceOnUse">
<stop stop-color="white"/>
<stop offset="1" stop-color="#C4E4FD"/>
</linearGradient>
<linearGradient id="paint11_linear_2191_1446" x1="453.099" y1="613.855" x2="471.18" y2="634.548" gradientUnits="userSpaceOnUse">
<stop stop-color="white"/>
<stop offset="1" stop-color="#C4E4FD"/>
</linearGradient>
<linearGradient id="paint12_linear_2191_1446" x1="580.482" y1="315.613" x2="605.367" y2="381.254" gradientUnits="userSpaceOnUse">
<stop stop-color="white"/>
<stop offset="1" stop-color="#C4E4FD"/>
</linearGradient>
<linearGradient id="paint13_linear_2191_1446" x1="848.705" y1="284.961" x2="848.705" y2="552.619" gradientUnits="userSpaceOnUse">
<stop stop-color="#66A5D5"/>
<stop offset="1" stop-color="#D9D9D9" stop-opacity="0"/>
</linearGradient>
<linearGradient id="paint14_linear_2191_1446" x1="674.026" y1="317.196" x2="674.026" y2="584.854" gradientUnits="userSpaceOnUse">
<stop stop-color="#66A5D5"/>
<stop offset="1" stop-color="#D9D9D9" stop-opacity="0"/>
</linearGradient>
<linearGradient id="paint15_linear_2191_1446" x1="790.985" y1="448.398" x2="651.296" y2="623.86" gradientUnits="userSpaceOnUse">
<stop stop-color="white"/>
<stop offset="1" stop-color="#C4E4FD"/>
</linearGradient>
<linearGradient id="paint16_linear_2191_1446" x1="551.138" y1="519.978" x2="641.95" y2="630.936" gradientUnits="userSpaceOnUse">
<stop stop-color="white"/>
<stop offset="1" stop-color="#C4E4FD"/>
</linearGradient>
<linearGradient id="paint17_linear_2191_1446" x1="289.161" y1="574.16" x2="234.446" y2="625.031" gradientUnits="userSpaceOnUse">
<stop stop-color="white"/>
<stop offset="1" stop-color="#C4E4FD"/>
</linearGradient>
<clipPath id="clip0_2191_1446">
<rect width="848.706" height="631.851" fill="white"/>
</clipPath>
</defs>
</svg>
