<svg width="581" height="632" viewBox="0 0 581 632" fill="none" xmlns="http://www.w3.org/2000/svg">
<g clip-path="url(#clip0_2191_2064)">
<g clip-path="url(#clip1_2191_2064)" filter="url(#filter0_f_2191_2064)">
<g filter="url(#filter1_dddd_2191_2064)">
<path d="M-29.0463 373.349L-8.22966 386.156C-6.84526 387.008 -5.00618 387.132 -3.52139 386.474L19.4105 376.31C19.6323 376.212 19.8426 376.098 20.0392 375.969L34.99 366.151C36.0834 365.434 36.6697 364.314 36.5622 363.149L34.7347 343.337C34.7037 343.002 34.6158 342.67 34.4734 342.353L29.0412 330.224C28.6716 329.399 27.9531 328.705 27.0197 328.27L1.70932 316.487L-24.9285 307.727C-26.2266 307.3 -27.6773 307.4 -28.8379 307.995L-40.5708 314.013L-50.954 319.127C-52.486 319.882 -53.2676 321.347 -52.9198 322.813L-49.8949 335.564L-44.4436 349.614C-44.3666 349.812 -44.2691 350.005 -44.1522 350.191L-30.3581 372.078C-30.0437 372.577 -29.5946 373.012 -29.0463 373.349Z" fill="url(#paint0_linear_2191_2064)"/>
<g style="mix-blend-mode:soft-light">
<path fill-rule="evenodd" clip-rule="evenodd" d="M27.3314 324.688C28.6459 325.205 29.8393 325.969 30.8056 326.912C31.7719 327.855 32.4812 328.948 32.8705 330.094L41.6281 355.816C42.1602 357.391 41.6816 358.95 40.373 359.901C25.8484 370.453 8.44853 378.087 -10.807 382.357L-20.9157 384.598C-22.2033 384.884 -23.6474 384.751 -24.9871 384.225C-26.3268 383.698 -27.4736 382.813 -28.2203 381.728L-34.0817 373.215C-45.2463 356.991 -52.7525 339.569 -56.1604 321.969C-56.467 320.383 -55.7465 318.919 -54.2803 318.129L-30.2792 305.28C-29.2114 304.708 -27.9463 304.392 -26.596 304.36C-25.2457 304.328 -23.8519 304.581 -22.5382 305.097L27.3314 324.688ZM26.0003 330.835C25.9444 330.671 25.8428 330.515 25.7047 330.381C25.5666 330.246 25.3961 330.138 25.2084 330.064L14.5322 325.869L16.7646 345.773C16.8093 346.228 16.8076 346.678 16.7595 347.12C20.047 348.195 23.346 349.229 26.6553 350.222L33.2736 352.214L26.0003 330.835ZM31.4458 357.71C18.5963 366.287 3.62267 372.593 -12.7704 376.332L13.2826 352.067C17.2555 353.386 21.2451 354.647 25.2494 355.851L31.4458 357.71ZM5.68212 349.466L-21.1166 374.431L-23.6502 337.94C-14.0137 342.129 -4.2247 345.975 5.68668 349.468M-30.9874 334.672L-28.5248 370.141C-37.9573 356.255 -44.5962 341.456 -48.1288 326.442L-42.3258 329.297C-38.5732 331.139 -34.7937 332.931 -30.9874 334.672ZM-45.7033 321.181L-39.4979 324.232C-36.3985 325.757 -33.2788 327.245 -30.1399 328.696C-29.8742 328.338 -29.5683 328.005 -29.2254 327.701L-13.9835 314.664L-24.6597 310.469C-24.8473 310.395 -25.0464 310.358 -25.2394 310.363C-25.4323 310.367 -25.6131 310.412 -25.7658 310.493L-45.7033 321.181ZM-23.219 331.817C-12.4719 336.553 -1.5462 340.846 9.55802 344.696L7.1181 322.955L-6.56941 317.577L-23.219 331.817Z" fill="white" fill-opacity="0.7"/>
</g>
</g>
<path d="M-236.543 295.052C-236.464 295.013 -236.44 294.912 -236.494 294.843V294.843C-236.592 294.717 -236.678 294.585 -236.75 294.449L-243.013 282.617C-243.48 281.734 -243.341 280.734 -242.642 279.945L-236.235 272.72C-236.089 272.555 -235.92 272.402 -235.732 272.263L-227.321 266.071C-226.573 265.521 -225.558 265.229 -224.517 265.265L-203.091 266.015C-202.902 266.022 -202.714 266.039 -202.529 266.067L-181.132 269.295C-180.009 269.464 -179.048 270.011 -178.518 270.781L-172.879 278.986L-167.736 286.195C-167.045 287.164 -167.146 288.347 -167.994 289.24L-174.021 295.582C-174.301 295.877 -174.181 296.364 -173.795 296.494V296.494C-173.623 296.552 -173.433 296.522 -173.287 296.415L-166.667 291.541C-165.919 290.99 -164.904 290.698 -163.863 290.735L-142.437 291.485C-142.248 291.491 -142.06 291.509 -141.874 291.537L-120.477 294.764C-119.354 294.933 -118.393 295.48 -117.864 296.25L-112.224 304.455L-107.082 311.665C-106.391 312.633 -106.491 313.816 -107.34 314.709V314.709C-110.874 318.428 -109.747 324.513 -105.117 326.721L-103.326 327.574C-102.118 328.15 -100.797 328.449 -99.4587 328.449H-80.0471L-71.0945 327.625C-68.9656 327.429 -67.3755 325.58 -67.5004 323.446V323.446C-67.5912 321.895 -66.6636 320.41 -65.0239 319.482L-50.0055 310.983C-49.6618 310.789 -49.2923 310.622 -48.903 310.486L-31.5328 304.401C-29.9875 303.86 -28.2163 303.827 -26.6383 304.311L5.83864 314.27C6.12485 314.357 6.40199 314.461 6.66771 314.581L37.3344 328.344C38.9434 329.066 40.0345 330.303 40.3014 331.708L43.1429 346.666L44.3513 352.401C44.9002 355.006 46.2995 357.355 48.3292 359.077L87.5178 392.332C88.4896 393.157 89.3237 394.131 89.989 395.218L93.7831 401.418C95.886 404.854 99.5727 407.006 103.599 407.147L107.325 407.278C107.514 407.284 107.701 407.302 107.887 407.33L129.284 410.557C130.407 410.726 131.368 411.273 131.897 412.043L137.537 420.248L142.68 427.458C143.37 428.426 143.27 429.609 142.421 430.502V430.502C141.362 431.617 142.585 433.385 144.002 432.788L154.081 428.538C155.997 427.73 158.316 427.695 160.272 428.446L178.191 435.318C178.601 435.475 178.989 435.665 179.347 435.883L195.341 445.623C196.764 446.49 197.652 447.764 197.795 449.145L200.748 477.559C200.774 477.809 200.775 478.061 200.751 478.311L198.032 507.227V507.227C197.893 508.703 198.152 510.585 199.512 511.175L204.731 513.44C206.435 514.179 208.388 514.076 210.004 513.161L211.704 512.199C211.814 512.137 211.932 512.084 212.056 512.04L217.607 510.096C218.101 509.923 218.667 509.912 219.171 510.067L229.55 513.249C229.641 513.277 229.73 513.311 229.815 513.349L239.614 517.747C240.129 517.978 240.477 518.373 240.563 518.822L241.471 523.602V523.602C241.824 525.28 243.406 526.406 245.107 526.192L248.992 525.702C249.581 525.628 250.183 525.761 250.628 526.063L255.372 529.281L259.631 532.082C260.203 532.458 260.441 533.05 260.243 533.605L258.875 537.44C258.667 538.025 258.413 538.592 258.117 539.137L255.836 543.337C255.788 543.426 255.729 543.51 255.659 543.59V543.59C255.555 543.71 255.6 543.897 255.747 543.957L271.63 550.412C273.295 551.09 274.714 552.069 275.761 553.263C276.807 554.457 277.45 555.828 277.631 557.256L279.799 574.253C280.166 577.133 281.565 579.782 283.737 581.709L295.491 592.143C297.371 593.811 299.728 594.847 302.228 595.105L322.824 597.225C323.743 597.32 324.635 596.882 325.122 596.097V596.097C325.354 595.723 325.779 595.439 326.296 595.311L336.94 592.682C337.033 592.659 337.129 592.641 337.227 592.629L348.457 591.214C349.046 591.14 349.648 591.272 350.093 591.574L354.836 594.792L359.095 597.594C359.668 597.97 359.905 598.562 359.708 599.116V599.116C359.374 600.052 360.005 601.053 360.994 601.155L370.406 602.124C371.978 602.286 373.485 602.854 374.74 603.815C377.776 606.139 381.251 609.059 384.418 612.168C384.543 612.291 384.75 612.269 384.845 612.121V612.121C384.891 612.051 384.944 611.983 385.003 611.919L390.168 606.31C390.553 605.892 391.186 605.646 391.858 605.653L398.013 605.719C398.154 605.72 398.294 605.733 398.432 605.756L404.564 606.809C405.109 606.903 405.58 607.163 405.863 607.529L411.706 615.059C411.758 615.126 411.803 615.195 411.84 615.266L416.209 623.513C416.438 623.946 416.396 624.434 416.096 624.841L412.895 629.172L410.137 633.042C409.767 633.562 409.037 633.875 408.259 633.847L401.653 633.614L394.409 632.651C394.282 632.634 394.156 632.608 394.035 632.573L392.004 631.984C391.931 631.963 391.853 631.976 391.791 632.019V632.019C391.751 632.047 391.702 632.062 391.653 632.062H-268V317.78C-268 313.177 -265.366 308.979 -261.221 306.976L-236.543 295.052Z" fill="url(#paint1_linear_2191_2064)"/>
<path d="M436.366 631.38L432.87 634.537C432.665 634.721 432.373 634.837 432.057 634.859L424.553 635.379C424.492 635.383 424.43 635.384 424.369 635.381L419.019 635.128C418.62 635.109 418.26 634.941 418.056 634.68L416.194 632.288C416.151 632.233 416.116 632.175 416.089 632.115L414.893 629.425C414.787 629.186 414.815 628.924 414.972 628.701L418.196 624.117C418.224 624.076 418.256 624.038 418.292 624.001L422.452 619.762C422.671 619.54 423.01 619.405 423.375 619.395L427.262 619.286L430.704 619.15C431.166 619.132 431.601 619.316 431.824 619.624L433.196 621.525C433.541 622.003 433.85 622.506 434.122 623.029L435.315 625.333C435.343 625.387 435.364 625.443 435.379 625.501L436.628 630.625C436.694 630.894 436.598 631.171 436.366 631.38Z" fill="url(#paint2_linear_2191_2064)"/>
<mask id="mask0_2191_2064" style="mask-type:alpha" maskUnits="userSpaceOnUse" x="-268" y="265" width="705" height="371">
<path d="M-236.543 295.052C-236.464 295.014 -236.44 294.913 -236.494 294.843V294.843C-236.592 294.717 -236.678 294.586 -236.75 294.45L-243.013 282.617C-243.48 281.735 -243.341 280.734 -242.642 279.945L-236.235 272.721C-236.089 272.556 -235.92 272.402 -235.732 272.264L-227.321 266.072C-226.573 265.521 -225.558 265.229 -224.517 265.266L-203.091 266.016C-202.902 266.022 -202.714 266.04 -202.529 266.068L-181.132 269.295C-180.009 269.464 -179.048 270.011 -178.518 270.781L-172.879 278.987L-167.736 286.196C-167.045 287.164 -167.146 288.347 -167.994 289.24L-174.021 295.583C-174.301 295.878 -174.181 296.364 -173.795 296.494V296.494C-173.623 296.552 -173.433 296.523 -173.287 296.415L-166.667 291.541C-165.919 290.99 -164.904 290.699 -163.863 290.735L-142.437 291.485C-142.248 291.492 -142.06 291.509 -141.874 291.537L-120.477 294.764C-119.354 294.934 -118.393 295.48 -117.864 296.251L-112.224 304.456L-107.082 311.665C-106.391 312.634 -106.491 313.817 -107.34 314.71V314.71C-110.874 318.429 -109.747 324.513 -105.117 326.721L-103.326 327.575C-102.118 328.151 -100.797 328.449 -99.4587 328.449H-80.0471L-71.0945 327.625C-68.9656 327.43 -67.3755 325.581 -67.5004 323.446V323.446C-67.5912 321.895 -66.6636 320.411 -65.0239 319.483L-50.0055 310.984C-49.6618 310.789 -49.2923 310.622 -48.903 310.486L-31.5328 304.402C-29.9875 303.861 -28.2163 303.828 -26.6383 304.312L5.83864 314.27C6.12485 314.358 6.40199 314.462 6.66771 314.581L37.3344 328.344C38.9434 329.066 40.0345 330.303 40.3014 331.708L43.1429 346.667L44.3513 352.402C44.9002 355.007 46.2995 357.355 48.3292 359.078L87.5178 392.333C88.4896 393.158 89.3237 394.132 89.989 395.219L93.7831 401.419C95.886 404.855 99.5727 407.007 103.599 407.148L107.325 407.278C107.514 407.285 107.701 407.302 107.887 407.33L129.284 410.557C130.407 410.727 131.368 411.273 131.897 412.044L137.537 420.249L142.68 427.458C143.37 428.427 143.27 429.61 142.421 430.503V430.503C141.362 431.618 142.585 433.386 144.002 432.788L154.081 428.538C155.997 427.73 158.316 427.696 160.272 428.446L178.191 435.319C178.601 435.476 178.989 435.665 179.347 435.883L195.341 445.624C196.764 446.49 197.652 447.764 197.795 449.145L200.748 477.559C200.774 477.81 200.775 478.061 200.751 478.312L198.032 507.227V507.227C197.893 508.703 198.152 510.586 199.512 511.176L204.731 513.44C206.435 514.18 208.388 514.076 210.004 513.161L211.704 512.2C211.814 512.137 211.932 512.084 212.056 512.041L217.607 510.096C218.101 509.923 218.667 509.913 219.171 510.068L229.55 513.25C229.641 513.278 229.73 513.311 229.815 513.349L239.614 517.747C240.129 517.978 240.477 518.373 240.563 518.822L241.471 523.602V523.602C241.824 525.28 243.406 526.407 245.107 526.192L248.992 525.703C249.581 525.629 250.183 525.761 250.628 526.063L255.372 529.281L259.631 532.083C260.203 532.459 260.441 533.051 260.243 533.605L258.875 537.441C258.667 538.025 258.413 538.592 258.117 539.137L255.836 543.338C255.788 543.426 255.729 543.511 255.659 543.591V543.591C255.555 543.711 255.6 543.898 255.747 543.958L271.63 550.413C273.295 551.09 274.714 552.069 275.761 553.263C276.807 554.457 277.45 555.829 277.631 557.256L279.799 574.254C280.166 577.134 281.565 579.783 283.737 581.71L295.491 592.143C297.371 593.812 299.728 594.848 302.228 595.105L322.824 597.226C323.743 597.32 324.635 596.882 325.122 596.097V596.097C325.354 595.724 325.779 595.439 326.296 595.312L336.94 592.683C337.033 592.66 337.129 592.642 337.227 592.63L348.457 591.214C349.046 591.14 349.648 591.273 350.093 591.575L354.836 594.793L359.095 597.594C359.668 597.971 359.905 598.562 359.708 599.117V599.117C359.374 600.053 360.005 601.054 360.994 601.155L370.406 602.124C371.978 602.286 373.485 602.855 374.74 603.816C377.776 606.139 381.251 609.06 384.418 612.169C384.543 612.292 384.75 612.269 384.845 612.122V612.122C384.891 612.051 384.944 611.983 385.003 611.919L390.168 606.31C390.553 605.892 391.186 605.646 391.858 605.653L398.013 605.719C398.154 605.721 398.294 605.733 398.432 605.757L404.564 606.81C405.109 606.903 405.58 607.164 405.863 607.53L411.706 615.06C411.758 615.126 411.803 615.195 411.84 615.267L416.209 623.514C416.438 623.946 416.396 624.435 416.096 624.841L412.895 629.173L410.137 633.043C409.767 633.562 409.037 633.875 408.259 633.848L401.653 633.614L394.409 632.652C394.282 632.635 394.156 632.609 394.035 632.574L392.004 631.984C391.931 631.963 391.853 631.977 391.791 632.02V632.02C391.751 632.048 391.702 632.062 391.653 632.062H-268V317.781C-268 313.177 -265.366 308.979 -261.221 306.976L-236.543 295.052Z" fill="url(#paint3_linear_2191_2064)"/>
<path d="M436.366 631.381L432.87 634.537C432.665 634.722 432.373 634.838 432.057 634.86L424.553 635.379C424.492 635.384 424.43 635.384 424.369 635.381L419.019 635.129C418.62 635.11 418.26 634.942 418.056 634.681L416.194 632.288C416.151 632.233 416.116 632.175 416.089 632.115L414.893 629.426C414.787 629.187 414.815 628.925 414.972 628.702L418.196 624.117C418.224 624.077 418.256 624.038 418.292 624.001L422.452 619.763C422.671 619.541 423.01 619.405 423.375 619.395L427.262 619.287L430.704 619.151C431.166 619.132 431.601 619.317 431.824 619.625L433.196 621.525C433.541 622.003 433.85 622.506 434.122 623.03L435.315 625.333C435.343 625.388 435.364 625.444 435.379 625.502L436.628 630.625C436.694 630.894 436.598 631.171 436.366 631.381Z" fill="url(#paint4_linear_2191_2064)"/>
</mask>
<g mask="url(#mask0_2191_2064)">
<path d="M148.715 488.285L202.653 427.948L517.578 646.153L191.319 695.606L-73.8558 638.991L-1.07837 579.056L49.8182 567.64L65.991 563.359L77.4071 550.992H89.2988H97.8609L100.239 543.857L109.277 546.711L116.888 543.857V533.868L129.517 522.111H148.715V488.285Z" fill="url(#paint5_linear_2191_2064)"/>
<g filter="url(#filter2_d_2191_2064)">
</g>
<g filter="url(#filter3_dddd_2191_2064)">
<path d="M94.5983 629.966L100.544 624.929C101.366 624.232 101.889 623.244 101.997 622.18L103.204 610.336C103.225 610.127 103.23 609.918 103.219 609.709L102.797 601.824C102.725 600.483 101.99 599.288 100.839 598.642L96.4911 596.2C96.2552 596.067 96.0055 595.96 95.7462 595.88L90.5762 594.28C89.5556 593.964 88.439 594.082 87.4811 594.608L77.8186 599.907C77.6437 600.003 77.4756 600.111 77.3159 600.232L68.4722 606.903C67.4848 607.648 66.8758 608.796 66.8185 610.021L66.5528 615.698L66.2653 620.307C66.1681 621.865 66.9744 623.312 68.3329 624.017L73.1749 626.529L80.0151 629.024C80.2484 629.109 80.4898 629.171 80.7361 629.21L91.3559 630.892C92.5048 631.074 93.6904 630.736 94.5983 629.966Z" fill="url(#paint6_linear_2191_2064)"/>
<g style="mix-blend-mode:soft-light">
<path fill-rule="evenodd" clip-rule="evenodd" d="M86.9684 592.806C87.4907 592.467 88.0855 592.257 88.6999 592.195C89.3144 592.134 89.9296 592.223 90.4908 592.454L103.093 597.632C103.864 597.951 104.389 598.658 104.47 599.486C105.359 608.669 104.374 617.998 101.572 626.926L100.102 631.614C99.9144 632.211 99.5189 632.729 98.9868 633.075C98.4547 633.421 97.8211 633.573 97.2006 633.501L92.3296 632.942C83.048 631.873 74.14 628.979 66.1277 624.429C65.4058 624.019 64.9766 623.249 64.9995 622.414L65.4085 608.771C65.4266 608.164 65.5961 607.565 65.9021 607.029C66.2081 606.492 66.641 606.033 67.1625 605.694L86.9684 592.806ZM89.1708 595.378C89.0906 595.345 89.0028 595.332 88.9151 595.341C88.8274 595.35 88.7426 595.38 88.6681 595.429L84.4276 598.188L93.1058 603.965C93.3026 604.1 93.4868 604.251 93.6564 604.417C94.8731 603.495 96.0761 602.555 97.2648 601.598L99.6443 599.684L89.1708 595.378ZM101.463 602.232C101.939 610.103 100.984 618.043 98.6412 625.679L94.8607 607.424C96.3393 606.317 97.7985 605.184 99.2374 604.025L101.463 602.232ZM91.9996 609.517L95.8907 628.296L80.3491 617.096C84.3413 614.74 88.2293 612.211 92.0014 609.516M77.2772 618.863L92.3838 629.75C84.4686 628.787 76.8399 626.432 69.8569 622.793L72.3974 621.486C74.0382 620.639 75.6648 619.765 77.2772 618.863ZM68.2757 620.091L70.9913 618.692C72.348 617.994 73.6945 617.276 75.0302 616.537C74.9465 616.314 74.8826 616.084 74.8391 615.849L73.1016 605.556L68.8611 608.314C68.7865 608.363 68.7246 608.428 68.6808 608.505C68.637 608.581 68.6126 608.667 68.6099 608.754L68.2757 620.091ZM77.9436 614.883C82.4224 612.277 86.762 609.454 90.9622 606.414L81.4828 600.103L76.0463 603.64L77.9436 614.883Z" fill="white" fill-opacity="0.7"/>
</g>
</g>
<g filter="url(#filter4_dddd_2191_2064)">
<path d="M50.4232 628.299L56.829 632.737C57.7144 633.351 58.805 633.599 59.86 633.429L71.6126 631.526C71.8197 631.493 72.0234 631.443 72.2219 631.379L79.7291 628.928C81.0054 628.512 81.9689 627.492 82.2953 626.213L83.5278 621.381C83.5946 621.119 83.6336 620.85 83.6439 620.579L83.8501 615.171C83.8908 614.103 83.4873 613.055 82.7318 612.266L75.1106 604.306C74.9726 604.162 74.8241 604.028 74.6663 603.905L65.9325 597.091C64.9574 596.33 63.6905 596.039 62.4926 596.301L56.9402 597.515L52.4144 598.431C50.884 598.741 49.6956 599.894 49.3666 601.389L48.1943 606.716L47.5562 613.969C47.5344 614.217 47.5366 614.466 47.5627 614.714L48.6892 625.407C48.811 626.564 49.4451 627.621 50.4232 628.299Z" fill="url(#paint7_linear_2191_2064)"/>
<g style="mix-blend-mode:soft-light">
<path fill-rule="evenodd" clip-rule="evenodd" d="M84.3385 611.305C84.8018 611.721 85.1585 612.241 85.3771 612.819C85.5957 613.397 85.6694 614.014 85.5916 614.616L83.8541 628.129C83.7458 628.956 83.1989 629.647 82.4204 629.939C73.7808 633.176 64.5149 634.641 55.1655 634.248L50.2573 634.042C49.6322 634.015 49.029 633.768 48.5568 633.343C48.0847 632.919 47.7746 632.346 47.6827 631.728L46.9614 626.879C45.5893 617.637 46.0774 608.284 48.397 599.366C48.6062 598.563 49.2384 597.949 50.051 597.755L63.3344 594.616C63.9255 594.476 64.5474 594.485 65.1451 594.641C65.7428 594.798 66.2979 595.097 66.761 595.513L84.3385 611.305ZM82.4254 614.098C82.4363 614.012 82.4256 613.924 82.3943 613.842C82.363 613.759 82.3119 613.685 82.2458 613.626L78.4829 610.245L75.1501 620.123C75.0711 620.348 74.9728 620.565 74.856 620.772C76.0618 621.708 77.2813 622.627 78.5141 623.527L80.9786 625.33L82.4254 614.098ZM78.9889 627.746C71.5098 630.245 63.5929 631.379 55.611 631.094L72.2637 622.714C73.7165 623.855 75.189 624.971 76.6804 626.061L78.9889 627.746ZM69.5015 620.493L52.3709 629.115L59.1633 611.203C62.4726 614.449 65.9228 617.549 69.5031 620.494M56.6606 608.694L50.0583 626.104C48.938 618.21 49.2374 610.231 50.9427 602.544L52.8633 604.66C54.1065 606.025 55.3723 607.37 56.6606 608.694ZM53.143 600.317L55.1974 602.578C56.2234 603.707 57.2661 604.822 58.3254 605.921C58.5191 605.782 58.725 605.661 58.9408 605.558L68.4325 601.213L64.6696 597.832C64.6035 597.773 64.5243 597.73 64.4389 597.707C64.3536 597.685 64.2647 597.684 64.1803 597.703L53.143 600.317ZM60.6777 608.306C64.3544 611.957 68.2052 615.418 72.23 618.687L75.8698 607.896L71.0456 603.562L60.6777 608.306Z" fill="white" fill-opacity="0.7"/>
</g>
</g>
<g filter="url(#filter5_dddd_2191_2064)">
<path d="M110.514 632.024L114.708 634.976C115.619 635.617 116.743 635.898 117.826 635.756L126.026 634.678C126.244 634.65 126.457 634.605 126.664 634.543L131.55 633.091C132.863 632.701 133.834 631.69 134.126 630.41L134.796 627.472C134.854 627.22 134.884 626.96 134.886 626.699L134.915 623.112C134.923 622.096 134.509 621.094 133.763 620.321L128.173 614.534C128.035 614.391 127.887 614.258 127.73 614.134L121.497 609.23C120.493 608.44 119.186 608.113 117.958 608.344L114.363 609.022L111.727 609.476C110.146 609.748 108.94 610.889 108.652 612.387L108.02 615.673L107.71 620.977C107.696 621.214 107.706 621.453 107.738 621.691L108.762 629.221C108.912 630.326 109.549 631.345 110.514 632.024Z" fill="url(#paint8_linear_2191_2064)"/>
<g style="mix-blend-mode:soft-light">
<path fill-rule="evenodd" clip-rule="evenodd" d="M135.196 619.902C135.553 620.223 135.832 620.618 136.009 621.053C136.185 621.488 136.254 621.948 136.21 622.395L135.214 632.413C135.151 633.026 134.757 633.528 134.181 633.728C127.782 635.943 120.875 636.825 113.863 636.322L110.182 636.058C109.713 636.024 109.256 635.826 108.893 635.5C108.53 635.173 108.284 634.74 108.202 634.278L107.552 630.652C106.315 623.743 106.47 616.792 108.006 610.208C108.144 609.614 108.604 609.172 109.208 609.045L119.087 607.008C119.526 606.918 119.992 606.938 120.444 607.068C120.895 607.198 121.317 607.433 121.674 607.753L135.196 619.902ZM133.826 621.938C133.833 621.875 133.823 621.809 133.797 621.747C133.772 621.685 133.732 621.628 133.681 621.583L130.786 618.981L128.513 626.259C128.459 626.424 128.39 626.584 128.308 626.735C129.232 627.459 130.166 628.17 131.11 628.868L132.997 630.265L133.826 621.938ZM131.561 632.019C126.015 633.71 120.111 634.376 114.126 633.984L126.41 628.122C127.524 629.004 128.652 629.868 129.794 630.713L131.561 632.019ZM124.291 626.407L111.654 632.438L116.337 619.26C118.889 621.75 121.544 624.135 124.292 626.408M114.406 617.336L109.854 630.146C108.836 624.245 108.881 618.313 109.984 612.63L111.471 614.248C112.433 615.292 113.411 616.321 114.406 617.336ZM111.582 611.022L113.172 612.751C113.966 613.615 114.772 614.468 115.59 615.31C115.732 615.211 115.884 615.125 116.043 615.053L123.054 612.034L120.16 609.432C120.109 609.387 120.048 609.353 119.984 609.334C119.919 609.316 119.853 609.313 119.79 609.325L111.582 611.022ZM117.406 617.138C120.242 619.938 123.205 622.6 126.294 625.124L128.776 617.175L125.065 613.84L117.406 617.138Z" fill="white" fill-opacity="0.7"/>
</g>
</g>
<g filter="url(#filter6_dddd_2191_2064)">
<path d="M-29.0443 373.35L-8.2277 386.157C-6.8433 387.008 -5.00422 387.132 -3.51944 386.474L19.4124 376.311C19.6342 376.213 19.8446 376.098 20.0411 375.969L34.9919 366.152C36.0853 365.434 36.6716 364.314 36.5642 363.15L34.7366 343.338C34.7057 343.002 34.6177 342.671 34.4753 342.353L29.0431 330.225C28.6736 329.4 27.955 328.705 27.0216 328.271L1.71127 316.487L-24.9265 307.728C-26.2247 307.301 -27.6753 307.4 -28.8359 307.995L-40.5688 314.013L-50.952 319.127C-52.484 319.882 -53.2657 321.348 -52.9179 322.814L-49.893 335.564L-44.4416 349.614C-44.3646 349.813 -44.2672 350.006 -44.1502 350.191L-30.3561 372.078C-30.0417 372.577 -29.5927 373.012 -29.0443 373.35Z" fill="url(#paint9_linear_2191_2064)"/>
<g style="mix-blend-mode:soft-light">
<path fill-rule="evenodd" clip-rule="evenodd" d="M27.3333 324.688C28.6479 325.205 29.8413 325.969 30.8076 326.912C31.7739 327.855 32.4831 328.948 32.8724 330.094L41.63 355.816C42.1622 357.391 41.6835 358.95 40.375 359.901C25.8504 370.453 8.45049 378.087 -10.805 382.357L-20.9138 384.598C-22.2014 384.884 -23.6455 384.751 -24.9852 384.225C-26.3248 383.698 -27.4717 382.813 -28.2183 381.728L-34.0797 373.215C-45.2443 356.991 -52.7506 339.569 -56.1585 321.969C-56.465 320.383 -55.7446 318.919 -54.2783 318.129L-30.2772 305.28C-29.2094 304.708 -27.9443 304.392 -26.594 304.36C-25.2437 304.328 -23.8499 304.581 -22.5362 305.097L27.3333 324.688ZM26.0023 330.835C25.9463 330.671 25.8448 330.515 25.7067 330.381C25.5685 330.246 25.3981 330.138 25.2104 330.064L14.5341 325.869L16.7666 345.773C16.8112 346.228 16.8095 346.678 16.7614 347.12C20.049 348.195 23.348 349.229 26.6572 350.222L33.2756 352.214L26.0023 330.835ZM31.4478 357.71C18.5983 366.287 3.62462 372.593 -12.7685 376.332L13.2845 352.067C17.2575 353.386 21.2471 354.647 25.2513 355.851L31.4478 357.71ZM5.68407 349.466L-21.1147 374.431L-23.6483 337.94C-14.0117 342.129 -4.22274 345.975 5.68864 349.468M-30.9854 334.672L-28.5228 370.141C-37.9554 356.255 -44.5942 341.456 -48.1269 326.442L-42.3239 329.297C-38.5712 331.139 -34.7918 332.931 -30.9854 334.672ZM-45.7013 321.181L-39.4959 324.232C-36.3965 325.757 -33.2768 327.245 -30.138 328.696C-29.8722 328.338 -29.5663 328.005 -29.2235 327.701L-13.9815 314.664L-24.6578 310.469C-24.8454 310.395 -25.0445 310.358 -25.2374 310.363C-25.4303 310.367 -25.6112 310.412 -25.7639 310.493L-45.7013 321.181ZM-23.2171 331.817C-12.4699 336.553 -1.54424 340.846 9.55997 344.696L7.12006 322.955L-6.56745 317.577L-23.2171 331.817Z" fill="white" fill-opacity="0.7"/>
</g>
</g>
<path d="M-167.678 345.299L-241.656 284.961L-673.586 503.166L-241.656 746.707L488.189 595.364L182.719 503.166L137.585 496.004L37.7687 436.07L-32.0377 424.654L-54.2192 420.372L-69.8768 408.005H-86.1866H-97.9298L-101.192 400.87L-113.587 403.724L-124.026 400.87V390.881L-141.347 379.124H-167.678V345.299Z" fill="url(#paint10_linear_2191_2064)"/>
<path d="M7.00137 377.534L-66.9767 317.196L-75.5905 348.162L-85.6145 345.155L-104.159 348.162L-107.667 355.68V317.196L-498.906 535.402L-66.9767 778.942L662.869 627.6L357.398 535.402L312.265 528.239L212.448 468.305L142.642 456.889L120.46 452.608L104.803 440.24H88.493H76.7499L73.4879 433.105L61.0923 435.959L50.6541 433.105V423.116L33.3326 411.36H7.00137V377.534Z" fill="url(#paint11_linear_2191_2064)"/>
</g>
<g style="mix-blend-mode:soft-light">
<path d="M-235.279 274.222L-235.388 274.079C-235.49 273.945 -235.579 273.806 -235.653 273.662L-242.136 261.108C-242.619 260.171 -242.475 259.11 -241.751 258.273L-235.121 250.608C-234.969 250.432 -234.794 250.27 -234.599 250.123L-225.894 243.553C-225.119 242.969 -224.069 242.659 -222.991 242.698L-200.813 243.494C-200.618 243.501 -200.424 243.519 -200.232 243.549L-178.084 246.973C-176.922 247.153 -175.927 247.733 -175.379 248.55L-169.541 257.255L-164.218 264.904C-163.503 265.932 -163.607 267.187 -164.486 268.135L-171.346 275.535L-170.206 275.929L-163.111 270.576C-162.337 269.991 -161.287 269.682 -160.209 269.72L-138.031 270.516C-137.836 270.523 -137.641 270.542 -137.449 270.571L-115.302 273.995C-114.14 274.175 -113.145 274.755 -112.597 275.572L-106.759 284.278L-101.436 291.927C-100.721 292.954 -100.825 294.209 -101.704 295.157L-109.116 303.153L-95.6499 309.734H-73.4533L-60.2347 308.487L-60.4665 304.426C-60.5605 302.78 -59.6004 301.205 -57.9031 300.221L-42.3579 291.204C-42.0021 290.997 -41.6197 290.82 -41.2168 290.676L-23.2372 284.22C-21.6377 283.646 -19.8044 283.612 -18.171 284.125L15.4452 294.69C15.7414 294.784 16.0283 294.894 16.3033 295.02L48.0457 309.623C49.7112 310.389 50.8406 311.701 51.1168 313.192L54.058 329.062L56.1852 339.411L101.508 378.834L109.961 392.992L120.491 393.369C120.687 393.376 120.881 393.395 121.073 393.424L143.221 396.849C144.383 397.028 145.378 397.608 145.926 398.426L151.763 407.131L157.086 414.78C157.801 415.807 157.697 417.063 156.819 418.01L151.975 423.236L168.887 415.926C170.871 415.069 173.271 415.032 175.296 415.828L193.844 423.12C194.268 423.287 194.669 423.487 195.04 423.719L211.595 434.053C213.067 434.972 213.987 436.324 214.135 437.789L217.191 467.936C217.218 468.202 217.22 468.468 217.195 468.734L214.38 499.413C214.283 500.472 213.783 501.471 212.967 502.292L224.115 507.25L228.532 504.688C228.646 504.622 228.768 504.566 228.897 504.52L234.642 502.457C235.153 502.273 235.739 502.262 236.261 502.426L247.004 505.803C247.098 505.832 247.19 505.868 247.278 505.908L257.421 510.574C257.954 510.819 258.315 511.239 258.403 511.715L259.343 516.786L259.99 519.937L267.128 519.015C267.738 518.936 268.361 519.077 268.822 519.397L273.731 522.812L278.14 525.784C278.732 526.183 278.978 526.811 278.773 527.399L277.034 532.4L274.212 537.725C274.162 537.819 274.101 537.909 274.029 537.994L273.809 538.253L290.56 545.232C292.283 545.95 293.752 546.989 294.836 548.256C295.919 549.522 296.584 550.978 296.771 552.492L299.605 575.265L318.251 592.229L345.105 595.063L345.929 593.701C346.169 593.305 346.608 593.003 347.144 592.868L358.161 590.079C358.258 590.054 358.357 590.035 358.458 590.022L370.082 588.521C370.692 588.442 371.315 588.583 371.776 588.903L376.685 592.318L381.094 595.29C381.686 595.689 381.932 596.317 381.727 596.905L381.049 598.856L395.286 600.358C398.904 603.057 403.493 606.885 407.556 611.006L407.747 610.703C407.794 610.628 407.849 610.556 407.91 610.488L413.256 604.538C413.655 604.094 414.31 603.833 415.006 603.84L421.377 603.91C421.523 603.912 421.668 603.925 421.81 603.95L428.157 605.067C428.722 605.166 429.208 605.443 429.502 605.831L435.55 613.82C435.603 613.891 435.65 613.964 435.689 614.04L440.21 622.79C440.448 623.249 440.405 623.767 440.093 624.198L436.78 628.794L433.926 632.9C433.542 633.451 432.787 633.783 431.982 633.754L425.144 633.506L417.646 632.485C417.514 632.467 417.385 632.439 417.259 632.402L415.037 631.741C414.983 631.781 414.928 631.821 414.871 631.86H-268V290.427L-235.279 274.222Z" fill="white" fill-opacity="0.7"/>
<path d="M461.074 631.137L457.456 634.485C457.244 634.681 456.942 634.804 456.614 634.828L448.848 635.379C448.784 635.383 448.72 635.384 448.657 635.381L443.12 635.113C442.707 635.093 442.334 634.915 442.123 634.638L440.195 632.099C440.151 632.041 440.114 631.98 440.087 631.916L438.849 629.062C438.739 628.809 438.768 628.531 438.93 628.294L442.267 623.43C442.296 623.387 442.33 623.346 442.367 623.307L446.673 618.81C446.899 618.574 447.25 618.431 447.628 618.42L451.652 618.305L455.214 618.161C455.692 618.141 456.143 618.337 456.373 618.664L458.33 621.442L459.987 624.72C460.016 624.778 460.038 624.838 460.053 624.899L461.346 630.335C461.414 630.62 461.314 630.914 461.074 631.137Z" fill="white" fill-opacity="0.7"/>
</g>
<g filter="url(#filter7_dddd_2191_2064)">
<g style="mix-blend-mode:soft-light">
<path fill-rule="evenodd" clip-rule="evenodd" d="M-156.375 400.891C-153.565 398.726 -150.265 397.287 -146.766 396.704C-143.267 396.12 -139.678 396.41 -136.318 397.547L-60.8679 423.021C-56.252 424.591 -52.8256 428.509 -51.8891 433.29C-41.5146 486.347 -41.8346 540.942 -52.8304 593.874L-58.6021 621.662C-59.3383 625.201 -61.3161 628.36 -64.1782 630.568C-67.0403 632.776 -70.5977 633.887 -74.2075 633.7L-102.544 632.237C-156.539 629.436 -209.432 615.884 -258.122 592.376C-262.509 590.256 -265.419 585.94 -265.765 581.077L-271.23 501.616C-271.474 498.081 -270.841 494.54 -269.389 491.307C-267.937 488.074 -265.71 485.249 -262.905 483.083L-156.375 400.891ZM-142.234 415.03C-142.714 414.869 -143.226 414.829 -143.726 414.913C-144.225 414.997 -144.696 415.203 -145.096 415.512L-167.905 433.107L-114.682 463.506C-113.473 464.216 -112.327 465.027 -111.256 465.932C-104.786 460.125 -98.406 454.218 -92.1177 448.215L-79.528 436.218L-142.234 415.03ZM-67.6085 450.36C-60.3595 495.941 -61.306 542.451 -70.4037 587.7L-102.606 482.969C-94.7366 475.987 -86.9936 468.864 -79.381 461.602L-67.6085 450.36ZM-117.863 496.185L-84.7236 603.923L-180.529 544.524C-158.918 529.363 -138.004 513.231 -117.854 496.177M-197.184 555.926L-104.061 613.663C-150.137 610.974 -195.363 600.082 -237.611 581.498L-223.748 572.965C-214.796 567.438 -205.941 561.759 -197.184 555.926ZM-248.253 566.371L-233.436 557.242C-226.033 552.684 -218.7 548.012 -211.44 543.229C-212.05 541.963 -212.549 540.648 -212.934 539.297L-228.825 480.1L-251.634 497.694C-252.035 498.003 -252.354 498.406 -252.562 498.868C-252.77 499.329 -252.861 499.835 -252.827 500.34L-248.253 566.371ZM-195.632 532.543C-171.365 515.751 -148.023 497.746 -125.608 478.526L-183.744 445.325L-212.986 467.882L-195.632 532.543Z" fill="white" fill-opacity="0.7"/>
</g>
</g>
<g filter="url(#filter8_dddd_2191_2064)">
<path d="M-60.63 615.007L-31.5401 633.666C-29.8381 634.758 -27.7739 635.134 -25.7964 634.712L21.0889 624.703C21.4721 624.622 21.8485 624.511 22.2147 624.371L54.0915 612.247C56.4684 611.343 58.2429 609.32 58.8292 606.845L64.1992 584.181C64.3221 583.662 64.3906 583.132 64.4036 582.599L64.9834 558.818C65.035 556.703 64.2104 554.66 62.7046 553.173L31.7147 522.569C31.4416 522.299 31.1486 522.051 30.8383 521.825L-4.97906 495.759C-6.85833 494.392 -9.25628 493.95 -11.4996 494.558L-35.3901 501.031L-56.6394 506.439C-59.4936 507.166 -61.68 509.462 -62.2657 512.348L-67.2423 536.873L-69.2857 564.623C-69.3217 565.112 -69.3108 565.604 -69.253 566.091L-64.1062 609.453C-63.8358 611.731 -62.5606 613.768 -60.63 615.007Z" fill="url(#paint12_linear_2191_2064)"/>
<g style="mix-blend-mode:soft-light">
<path fill-rule="evenodd" clip-rule="evenodd" d="M66.5236 547.257C68.2559 548.721 69.5999 550.589 70.4364 552.697C71.2729 554.805 71.576 557.087 71.3187 559.34L65.5745 609.926C65.2159 613.022 63.2297 615.692 60.368 616.922C28.6104 630.56 -5.55 637.723 -40.1113 637.99L-58.2556 638.131C-60.5664 638.148 -62.8071 637.338 -64.5728 635.847C-66.3385 634.356 -67.5126 632.283 -67.8829 630.002L-70.7902 612.097C-76.3213 577.976 -74.9856 543.095 -66.8613 509.497C-66.1283 506.469 -63.8234 504.069 -60.831 503.196L-11.9113 489.065C-9.73471 488.436 -7.43649 488.354 -5.22037 488.825C-3.00426 489.297 -0.938687 490.308 0.793236 491.768L66.5236 547.257ZM59.5949 558.001C59.631 557.679 59.5871 557.353 59.4672 557.053C59.3474 556.752 59.1552 556.486 58.9077 556.277L44.8366 544.396L33.0169 581.756C32.7365 582.607 32.384 583.433 31.963 584.224C36.4647 587.484 41.0162 590.675 45.6158 593.795L54.8108 600.044L59.5949 558.001ZM47.5807 609.4C20.0734 620.078 -9.11924 625.759 -38.6232 626.176L22.4824 591.927C27.9069 595.904 33.4029 599.782 38.9675 603.56L47.5807 609.4ZM12.1664 584.175L-50.6929 619.415L-26.4931 551.533C-14.1042 562.994 -1.20249 573.887 12.1724 584.18M-35.8646 542.662L-59.3871 608.644C-63.9209 579.487 -63.2132 549.755 -57.2972 520.848L-50.0955 528.36C-45.4343 533.209 -40.6907 537.976 -35.8646 542.662ZM-49.2793 512.157L-41.5761 520.185C-37.7292 524.197 -33.8209 528.149 -29.8527 532.041C-29.144 531.49 -28.3893 531 -27.5971 530.577L7.25351 512.663L-6.8176 500.782C-7.06473 500.573 -7.35961 500.429 -7.67609 500.361C-7.99258 500.293 -8.32089 500.304 -8.63194 500.394L-49.2793 512.157ZM-21.0426 540.479C-7.27638 553.379 7.12346 565.538 22.1569 576.954L35.065 536.146L17.0251 520.914L-21.0426 540.479Z" fill="white" fill-opacity="0.7"/>
</g>
</g>
<g filter="url(#filter9_dddd_2191_2064)">
<path d="M337.996 624.188L348.655 609.674C349.279 608.825 349.542 607.764 349.388 606.722L345.725 582.012C345.695 581.81 345.649 581.61 345.589 581.415L340.332 564.44C339.94 563.175 338.946 562.185 337.679 561.799L326.07 558.261C325.804 558.18 325.53 558.127 325.254 558.103L312.907 557.02C311.808 556.923 310.719 557.285 309.896 558.019L292.963 573.128C292.813 573.261 292.674 573.406 292.547 573.56L277.815 591.328C277.042 592.26 276.733 593.493 276.976 594.679L279.556 607.316L281.67 618.543C281.954 620.052 283.076 621.264 284.558 621.663L297.148 625.058L311.511 627.033C311.764 627.067 312.02 627.078 312.275 627.064L334.994 625.813C336.187 625.747 337.288 625.151 337.996 624.188Z" fill="url(#paint13_linear_2191_2064)"/>
<g style="mix-blend-mode:soft-light">
<path fill-rule="evenodd" clip-rule="evenodd" d="M306.946 555.838C307.764 554.985 308.78 554.348 309.903 553.982C311.027 553.616 312.223 553.534 313.387 553.742L339.503 558.392C341.102 558.68 342.425 559.801 342.97 561.329C349.018 578.292 351.62 596.292 350.623 614.273L350.099 623.713C350.032 624.915 349.537 626.053 348.704 626.923C347.871 627.792 346.754 628.334 345.556 628.452L336.149 629.375C318.224 631.129 300.129 629.288 282.925 623.959C281.374 623.478 280.202 622.2 279.847 620.616L274.107 594.712C273.851 593.56 273.884 592.362 274.202 591.225C274.52 590.088 275.113 589.047 275.93 588.194L306.946 555.838ZM312.305 559.794C312.139 559.765 311.968 559.777 311.808 559.829C311.647 559.882 311.502 559.973 311.386 560.095L304.745 567.021L323.784 574.396C324.218 574.57 324.635 574.78 325.033 575.025C326.876 572.792 328.685 570.53 330.459 568.24L334.011 563.664L312.305 559.794ZM338.638 567.732C343.286 582.387 345.281 597.754 344.528 613.11L328.727 580.209C330.973 577.519 333.17 574.788 335.318 572.019L338.638 567.732ZM324.357 585.318L340.615 619.165L306.111 604.349C312.478 598.283 318.567 591.932 324.359 585.315M301.19 608.93L334.728 623.332C319.417 624.731 303.98 623.385 289.142 619.358L293.285 615.86C295.96 613.596 298.595 611.286 301.19 608.93ZM284.886 614.903L289.314 611.161C291.527 609.293 293.71 607.39 295.865 605.455C295.601 605.068 295.371 604.66 295.178 604.234L287.008 585.522L280.367 592.449C280.25 592.57 280.165 592.719 280.12 592.881C280.074 593.043 280.069 593.215 280.105 593.379L284.886 614.903ZM300.542 601.151C307.703 594.416 314.499 587.328 320.93 579.886L300.133 571.832L291.62 580.712L300.542 601.151Z" fill="white" fill-opacity="0.7"/>
</g>
</g>
<g style="mix-blend-mode:soft-light">
<path fill-rule="evenodd" clip-rule="evenodd" d="M306.944 555.837C307.762 554.985 308.778 554.347 309.901 553.982C311.025 553.616 312.222 553.533 313.385 553.741L339.501 558.391C341.1 558.68 342.423 559.8 342.968 561.329C349.016 578.292 351.618 596.291 350.621 614.272L350.097 623.712C350.03 624.914 349.535 626.053 348.702 626.922C347.869 627.791 346.752 628.334 345.554 628.451L336.147 629.374C318.222 631.129 300.127 629.288 282.923 623.958C281.372 623.477 280.2 622.2 279.845 620.615L274.105 594.712C273.849 593.559 273.882 592.361 274.2 591.224C274.518 590.087 275.111 589.047 275.928 588.194L306.944 555.837ZM312.303 559.794C312.137 559.764 311.966 559.776 311.806 559.829C311.645 559.881 311.501 559.973 311.384 560.094L304.743 567.021L323.782 574.396C324.216 574.569 324.634 574.78 325.031 575.025C326.874 572.791 328.683 570.529 330.457 568.24L334.009 563.664L312.303 559.794ZM338.637 567.731C343.285 582.386 345.279 597.754 344.526 613.11L328.725 580.208C330.971 577.518 333.169 574.788 335.316 572.018L338.637 567.731ZM324.355 585.318L340.613 619.164L306.109 604.348C312.476 598.282 318.565 591.932 324.357 585.315M301.188 608.93L334.726 623.331C319.415 624.73 303.978 623.385 289.14 619.358L293.283 615.86C295.958 613.595 298.593 611.285 301.188 608.93ZM284.884 614.903L289.312 611.161C291.525 609.292 293.709 607.39 295.863 605.454C295.599 605.068 295.369 604.659 295.176 604.233L287.006 585.521L280.365 592.448C280.248 592.57 280.163 592.718 280.118 592.881C280.072 593.043 280.067 593.214 280.103 593.379L284.884 614.903ZM300.54 601.15C307.701 594.416 314.497 587.327 320.928 579.885L300.131 571.831L291.618 580.711L300.54 601.15Z" fill="white" fill-opacity="0.7"/>
</g>
</g>
</g>
<defs>
<filter id="filter0_f_2191_2064" x="-275" y="-7" width="862.705" height="645.851" filterUnits="userSpaceOnUse" color-interpolation-filters="sRGB">
<feFlood flood-opacity="0" result="BackgroundImageFix"/>
<feBlend mode="normal" in="SourceGraphic" in2="BackgroundImageFix" result="shape"/>
<feGaussianBlur stdDeviation="3.5" result="effect1_foregroundBlur_2191_2064"/>
</filter>
<filter id="filter1_dddd_2191_2064" x="-199.663" y="163.784" width="379.359" height="364.929" filterUnits="userSpaceOnUse" color-interpolation-filters="sRGB">
<feFlood flood-opacity="0" result="BackgroundImageFix"/>
<feColorMatrix in="SourceAlpha" type="matrix" values="0 0 0 0 0 0 0 0 0 0 0 0 0 0 0 0 0 0 127 0" result="hardAlpha"/>
<feOffset/>
<feGaussianBlur stdDeviation="4.21237"/>
<feColorMatrix type="matrix" values="0 0 0 0 0.490196 0 0 0 0 0.682353 0 0 0 0 0.831373 0 0 0 1 0"/>
<feBlend mode="normal" in2="BackgroundImageFix" result="effect1_dropShadow_2191_2064"/>
<feColorMatrix in="SourceAlpha" type="matrix" values="0 0 0 0 0 0 0 0 0 0 0 0 0 0 0 0 0 0 127 0" result="hardAlpha"/>
<feOffset/>
<feGaussianBlur stdDeviation="8.42474"/>
<feColorMatrix type="matrix" values="0 0 0 0 0.490196 0 0 0 0 0.682353 0 0 0 0 0.831373 0 0 0 1 0"/>
<feBlend mode="normal" in2="effect1_dropShadow_2191_2064" result="effect2_dropShadow_2191_2064"/>
<feColorMatrix in="SourceAlpha" type="matrix" values="0 0 0 0 0 0 0 0 0 0 0 0 0 0 0 0 0 0 127 0" result="hardAlpha"/>
<feOffset/>
<feGaussianBlur stdDeviation="29.4866"/>
<feColorMatrix type="matrix" values="0 0 0 0 0.490196 0 0 0 0 0.682353 0 0 0 0 0.831373 0 0 0 1 0"/>
<feBlend mode="normal" in2="effect2_dropShadow_2191_2064" result="effect3_dropShadow_2191_2064"/>
<feColorMatrix in="SourceAlpha" type="matrix" values="0 0 0 0 0 0 0 0 0 0 0 0 0 0 0 0 0 0 127 0" result="hardAlpha"/>
<feOffset/>
<feGaussianBlur stdDeviation="58.9732"/>
<feColorMatrix type="matrix" values="0 0 0 0 0.490196 0 0 0 0 0.682353 0 0 0 0 0.831373 0 0 0 1 0"/>
<feBlend mode="normal" in2="effect3_dropShadow_2191_2064" result="effect4_dropShadow_2191_2064"/>
<feBlend mode="normal" in="SourceGraphic" in2="effect4_dropShadow_2191_2064" result="shape"/>
</filter>
<filter id="filter2_d_2191_2064" x="-288.993" y="245.474" width="306.58" height="306.147" filterUnits="userSpaceOnUse" color-interpolation-filters="sRGB">
<feFlood flood-opacity="0" result="BackgroundImageFix"/>
<feColorMatrix in="SourceAlpha" type="matrix" values="0 0 0 0 0 0 0 0 0 0 0 0 0 0 0 0 0 0 127 0" result="hardAlpha"/>
<feOffset/>
<feGaussianBlur stdDeviation="58.9732"/>
<feColorMatrix type="matrix" values="0 0 0 0 0.490196 0 0 0 0 0.682353 0 0 0 0 0.831373 0 0 0 1 0"/>
<feBlend mode="normal" in2="BackgroundImageFix" result="effect1_dropShadow_2191_2064"/>
<feBlend mode="normal" in="SourceGraphic" in2="effect1_dropShadow_2191_2064" result="shape"/>
</filter>
<filter id="filter3_dddd_2191_2064" x="-66.3096" y="461.474" width="306.58" height="306.147" filterUnits="userSpaceOnUse" color-interpolation-filters="sRGB">
<feFlood flood-opacity="0" result="BackgroundImageFix"/>
<feColorMatrix in="SourceAlpha" type="matrix" values="0 0 0 0 0 0 0 0 0 0 0 0 0 0 0 0 0 0 127 0" result="hardAlpha"/>
<feOffset/>
<feGaussianBlur stdDeviation="4.21237"/>
<feColorMatrix type="matrix" values="0 0 0 0 0.490196 0 0 0 0 0.682353 0 0 0 0 0.831373 0 0 0 1 0"/>
<feBlend mode="normal" in2="BackgroundImageFix" result="effect1_dropShadow_2191_2064"/>
<feColorMatrix in="SourceAlpha" type="matrix" values="0 0 0 0 0 0 0 0 0 0 0 0 0 0 0 0 0 0 127 0" result="hardAlpha"/>
<feOffset/>
<feGaussianBlur stdDeviation="8.42474"/>
<feColorMatrix type="matrix" values="0 0 0 0 0.490196 0 0 0 0 0.682353 0 0 0 0 0.831373 0 0 0 1 0"/>
<feBlend mode="normal" in2="effect1_dropShadow_2191_2064" result="effect2_dropShadow_2191_2064"/>
<feColorMatrix in="SourceAlpha" type="matrix" values="0 0 0 0 0 0 0 0 0 0 0 0 0 0 0 0 0 0 127 0" result="hardAlpha"/>
<feOffset/>
<feGaussianBlur stdDeviation="29.4866"/>
<feColorMatrix type="matrix" values="0 0 0 0 0.490196 0 0 0 0 0.682353 0 0 0 0 0.831373 0 0 0 1 0"/>
<feBlend mode="normal" in2="effect2_dropShadow_2191_2064" result="effect3_dropShadow_2191_2064"/>
<feColorMatrix in="SourceAlpha" type="matrix" values="0 0 0 0 0 0 0 0 0 0 0 0 0 0 0 0 0 0 127 0" result="hardAlpha"/>
<feOffset/>
<feGaussianBlur stdDeviation="58.9732"/>
<feColorMatrix type="matrix" values="0 0 0 0 0.490196 0 0 0 0 0.682353 0 0 0 0 0.831373 0 0 0 1 0"/>
<feBlend mode="normal" in2="effect3_dropShadow_2191_2064" result="effect4_dropShadow_2191_2064"/>
<feBlend mode="normal" in="SourceGraphic" in2="effect4_dropShadow_2191_2064" result="shape"/>
</filter>
<filter id="filter4_dddd_2191_2064" x="-90.6436" y="463.093" width="307.971" height="307.708" filterUnits="userSpaceOnUse" color-interpolation-filters="sRGB">
<feFlood flood-opacity="0" result="BackgroundImageFix"/>
<feColorMatrix in="SourceAlpha" type="matrix" values="0 0 0 0 0 0 0 0 0 0 0 0 0 0 0 0 0 0 127 0" result="hardAlpha"/>
<feOffset/>
<feGaussianBlur stdDeviation="4.21237"/>
<feColorMatrix type="matrix" values="0 0 0 0 0.490196 0 0 0 0 0.682353 0 0 0 0 0.831373 0 0 0 1 0"/>
<feBlend mode="normal" in2="BackgroundImageFix" result="effect1_dropShadow_2191_2064"/>
<feColorMatrix in="SourceAlpha" type="matrix" values="0 0 0 0 0 0 0 0 0 0 0 0 0 0 0 0 0 0 127 0" result="hardAlpha"/>
<feOffset/>
<feGaussianBlur stdDeviation="8.42474"/>
<feColorMatrix type="matrix" values="0 0 0 0 0.490196 0 0 0 0 0.682353 0 0 0 0 0.831373 0 0 0 1 0"/>
<feBlend mode="normal" in2="effect1_dropShadow_2191_2064" result="effect2_dropShadow_2191_2064"/>
<feColorMatrix in="SourceAlpha" type="matrix" values="0 0 0 0 0 0 0 0 0 0 0 0 0 0 0 0 0 0 127 0" result="hardAlpha"/>
<feOffset/>
<feGaussianBlur stdDeviation="29.4866"/>
<feColorMatrix type="matrix" values="0 0 0 0 0.490196 0 0 0 0 0.682353 0 0 0 0 0.831373 0 0 0 1 0"/>
<feBlend mode="normal" in2="effect2_dropShadow_2191_2064" result="effect3_dropShadow_2191_2064"/>
<feColorMatrix in="SourceAlpha" type="matrix" values="0 0 0 0 0 0 0 0 0 0 0 0 0 0 0 0 0 0 127 0" result="hardAlpha"/>
<feOffset/>
<feGaussianBlur stdDeviation="58.9732"/>
<feColorMatrix type="matrix" values="0 0 0 0 0.490196 0 0 0 0 0.682353 0 0 0 0 0.831373 0 0 0 1 0"/>
<feBlend mode="normal" in2="effect3_dropShadow_2191_2064" result="effect4_dropShadow_2191_2064"/>
<feBlend mode="normal" in="SourceGraphic" in2="effect4_dropShadow_2191_2064" result="shape"/>
</filter>
<filter id="filter5_dddd_2191_2064" x="-25.3155" y="478.9" width="289.826" height="289.458" filterUnits="userSpaceOnUse" color-interpolation-filters="sRGB">
<feFlood flood-opacity="0" result="BackgroundImageFix"/>
<feColorMatrix in="SourceAlpha" type="matrix" values="0 0 0 0 0 0 0 0 0 0 0 0 0 0 0 0 0 0 127 0" result="hardAlpha"/>
<feOffset/>
<feGaussianBlur stdDeviation="4.21237"/>
<feColorMatrix type="matrix" values="0 0 0 0 0.490196 0 0 0 0 0.682353 0 0 0 0 0.831373 0 0 0 1 0"/>
<feBlend mode="normal" in2="BackgroundImageFix" result="effect1_dropShadow_2191_2064"/>
<feColorMatrix in="SourceAlpha" type="matrix" values="0 0 0 0 0 0 0 0 0 0 0 0 0 0 0 0 0 0 127 0" result="hardAlpha"/>
<feOffset/>
<feGaussianBlur stdDeviation="8.42474"/>
<feColorMatrix type="matrix" values="0 0 0 0 0.490196 0 0 0 0 0.682353 0 0 0 0 0.831373 0 0 0 1 0"/>
<feBlend mode="normal" in2="effect1_dropShadow_2191_2064" result="effect2_dropShadow_2191_2064"/>
<feColorMatrix in="SourceAlpha" type="matrix" values="0 0 0 0 0 0 0 0 0 0 0 0 0 0 0 0 0 0 127 0" result="hardAlpha"/>
<feOffset/>
<feGaussianBlur stdDeviation="29.4866"/>
<feColorMatrix type="matrix" values="0 0 0 0 0.490196 0 0 0 0 0.682353 0 0 0 0 0.831373 0 0 0 1 0"/>
<feBlend mode="normal" in2="effect2_dropShadow_2191_2064" result="effect3_dropShadow_2191_2064"/>
<feColorMatrix in="SourceAlpha" type="matrix" values="0 0 0 0 0 0 0 0 0 0 0 0 0 0 0 0 0 0 127 0" result="hardAlpha"/>
<feOffset/>
<feGaussianBlur stdDeviation="58.9732"/>
<feColorMatrix type="matrix" values="0 0 0 0 0.490196 0 0 0 0 0.682353 0 0 0 0 0.831373 0 0 0 1 0"/>
<feBlend mode="normal" in2="effect3_dropShadow_2191_2064" result="effect4_dropShadow_2191_2064"/>
<feBlend mode="normal" in="SourceGraphic" in2="effect4_dropShadow_2191_2064" result="shape"/>
</filter>
<filter id="filter6_dddd_2191_2064" x="-199.661" y="163.784" width="379.359" height="364.929" filterUnits="userSpaceOnUse" color-interpolation-filters="sRGB">
<feFlood flood-opacity="0" result="BackgroundImageFix"/>
<feColorMatrix in="SourceAlpha" type="matrix" values="0 0 0 0 0 0 0 0 0 0 0 0 0 0 0 0 0 0 127 0" result="hardAlpha"/>
<feOffset/>
<feGaussianBlur stdDeviation="4.21237"/>
<feColorMatrix type="matrix" values="0 0 0 0 0.490196 0 0 0 0 0.682353 0 0 0 0 0.831373 0 0 0 1 0"/>
<feBlend mode="normal" in2="BackgroundImageFix" result="effect1_dropShadow_2191_2064"/>
<feColorMatrix in="SourceAlpha" type="matrix" values="0 0 0 0 0 0 0 0 0 0 0 0 0 0 0 0 0 0 127 0" result="hardAlpha"/>
<feOffset/>
<feGaussianBlur stdDeviation="8.42474"/>
<feColorMatrix type="matrix" values="0 0 0 0 0.490196 0 0 0 0 0.682353 0 0 0 0 0.831373 0 0 0 1 0"/>
<feBlend mode="normal" in2="effect1_dropShadow_2191_2064" result="effect2_dropShadow_2191_2064"/>
<feColorMatrix in="SourceAlpha" type="matrix" values="0 0 0 0 0 0 0 0 0 0 0 0 0 0 0 0 0 0 127 0" result="hardAlpha"/>
<feOffset/>
<feGaussianBlur stdDeviation="29.4866"/>
<feColorMatrix type="matrix" values="0 0 0 0 0.490196 0 0 0 0 0.682353 0 0 0 0 0.831373 0 0 0 1 0"/>
<feBlend mode="normal" in2="effect2_dropShadow_2191_2064" result="effect3_dropShadow_2191_2064"/>
<feColorMatrix in="SourceAlpha" type="matrix" values="0 0 0 0 0 0 0 0 0 0 0 0 0 0 0 0 0 0 127 0" result="hardAlpha"/>
<feOffset/>
<feGaussianBlur stdDeviation="58.9732"/>
<feColorMatrix type="matrix" values="0 0 0 0 0.490196 0 0 0 0 0.682353 0 0 0 0 0.831373 0 0 0 1 0"/>
<feBlend mode="normal" in2="effect3_dropShadow_2191_2064" result="effect4_dropShadow_2191_2064"/>
<feBlend mode="normal" in="SourceGraphic" in2="effect4_dropShadow_2191_2064" result="shape"/>
</filter>
<filter id="filter7_dddd_2191_2064" x="-705.119" y="-33.9956" width="1122.53" height="1122.53" filterUnits="userSpaceOnUse" color-interpolation-filters="sRGB">
<feFlood flood-opacity="0" result="BackgroundImageFix"/>
<feColorMatrix in="SourceAlpha" type="matrix" values="0 0 0 0 0 0 0 0 0 0 0 0 0 0 0 0 0 0 127 0" result="hardAlpha"/>
<feOffset/>
<feGaussianBlur stdDeviation="12.6454"/>
<feColorMatrix type="matrix" values="0 0 0 0 0.490196 0 0 0 0 0.682353 0 0 0 0 0.831373 0 0 0 1 0"/>
<feBlend mode="normal" in2="BackgroundImageFix" result="effect1_dropShadow_2191_2064"/>
<feColorMatrix in="SourceAlpha" type="matrix" values="0 0 0 0 0 0 0 0 0 0 0 0 0 0 0 0 0 0 127 0" result="hardAlpha"/>
<feOffset/>
<feGaussianBlur stdDeviation="25.2908"/>
<feColorMatrix type="matrix" values="0 0 0 0 0.490196 0 0 0 0 0.682353 0 0 0 0 0.831373 0 0 0 1 0"/>
<feBlend mode="normal" in2="effect1_dropShadow_2191_2064" result="effect2_dropShadow_2191_2064"/>
<feColorMatrix in="SourceAlpha" type="matrix" values="0 0 0 0 0 0 0 0 0 0 0 0 0 0 0 0 0 0 127 0" result="hardAlpha"/>
<feOffset/>
<feGaussianBlur stdDeviation="88.5179"/>
<feColorMatrix type="matrix" values="0 0 0 0 0.490196 0 0 0 0 0.682353 0 0 0 0 0.831373 0 0 0 1 0"/>
<feBlend mode="normal" in2="effect2_dropShadow_2191_2064" result="effect3_dropShadow_2191_2064"/>
<feColorMatrix in="SourceAlpha" type="matrix" values="0 0 0 0 0 0 0 0 0 0 0 0 0 0 0 0 0 0 127 0" result="hardAlpha"/>
<feOffset/>
<feGaussianBlur stdDeviation="177.036"/>
<feColorMatrix type="matrix" values="0 0 0 0 0.490196 0 0 0 0 0.682353 0 0 0 0 0.831373 0 0 0 1 0"/>
<feBlend mode="normal" in2="effect3_dropShadow_2191_2064" result="effect4_dropShadow_2191_2064"/>
<feBlend mode="normal" in="SourceGraphic" in2="effect4_dropShadow_2191_2064" result="shape"/>
</filter>
<filter id="filter8_dddd_2191_2064" x="-370.213" y="212.678" width="718.897" height="718.897" filterUnits="userSpaceOnUse" color-interpolation-filters="sRGB">
<feFlood flood-opacity="0" result="BackgroundImageFix"/>
<feColorMatrix in="SourceAlpha" type="matrix" values="0 0 0 0 0 0 0 0 0 0 0 0 0 0 0 0 0 0 127 0" result="hardAlpha"/>
<feOffset/>
<feGaussianBlur stdDeviation="8.08434"/>
<feColorMatrix type="matrix" values="0 0 0 0 0.490196 0 0 0 0 0.682353 0 0 0 0 0.831373 0 0 0 1 0"/>
<feBlend mode="normal" in2="BackgroundImageFix" result="effect1_dropShadow_2191_2064"/>
<feColorMatrix in="SourceAlpha" type="matrix" values="0 0 0 0 0 0 0 0 0 0 0 0 0 0 0 0 0 0 127 0" result="hardAlpha"/>
<feOffset/>
<feGaussianBlur stdDeviation="16.1687"/>
<feColorMatrix type="matrix" values="0 0 0 0 0.490196 0 0 0 0 0.682353 0 0 0 0 0.831373 0 0 0 1 0"/>
<feBlend mode="normal" in2="effect1_dropShadow_2191_2064" result="effect2_dropShadow_2191_2064"/>
<feColorMatrix in="SourceAlpha" type="matrix" values="0 0 0 0 0 0 0 0 0 0 0 0 0 0 0 0 0 0 127 0" result="hardAlpha"/>
<feOffset/>
<feGaussianBlur stdDeviation="56.5904"/>
<feColorMatrix type="matrix" values="0 0 0 0 0.490196 0 0 0 0 0.682353 0 0 0 0 0.831373 0 0 0 1 0"/>
<feBlend mode="normal" in2="effect2_dropShadow_2191_2064" result="effect3_dropShadow_2191_2064"/>
<feColorMatrix in="SourceAlpha" type="matrix" values="0 0 0 0 0 0 0 0 0 0 0 0 0 0 0 0 0 0 127 0" result="hardAlpha"/>
<feOffset/>
<feGaussianBlur stdDeviation="113.181"/>
<feColorMatrix type="matrix" values="0 0 0 0 0.490196 0 0 0 0 0.682353 0 0 0 0 0.831373 0 0 0 1 0"/>
<feBlend mode="normal" in2="effect3_dropShadow_2191_2064" result="effect4_dropShadow_2191_2064"/>
<feBlend mode="normal" in="SourceGraphic" in2="effect4_dropShadow_2191_2064" result="shape"/>
</filter>
<filter id="filter9_dddd_2191_2064" x="129.813" y="409.324" width="375.045" height="375.046" filterUnits="userSpaceOnUse" color-interpolation-filters="sRGB">
<feFlood flood-opacity="0" result="BackgroundImageFix"/>
<feColorMatrix in="SourceAlpha" type="matrix" values="0 0 0 0 0 0 0 0 0 0 0 0 0 0 0 0 0 0 127 0" result="hardAlpha"/>
<feOffset/>
<feGaussianBlur stdDeviation="4.21237"/>
<feColorMatrix type="matrix" values="0 0 0 0 0.490196 0 0 0 0 0.682353 0 0 0 0 0.831373 0 0 0 1 0"/>
<feBlend mode="normal" in2="BackgroundImageFix" result="effect1_dropShadow_2191_2064"/>
<feColorMatrix in="SourceAlpha" type="matrix" values="0 0 0 0 0 0 0 0 0 0 0 0 0 0 0 0 0 0 127 0" result="hardAlpha"/>
<feOffset/>
<feGaussianBlur stdDeviation="8.42474"/>
<feColorMatrix type="matrix" values="0 0 0 0 0.490196 0 0 0 0 0.682353 0 0 0 0 0.831373 0 0 0 1 0"/>
<feBlend mode="normal" in2="effect1_dropShadow_2191_2064" result="effect2_dropShadow_2191_2064"/>
<feColorMatrix in="SourceAlpha" type="matrix" values="0 0 0 0 0 0 0 0 0 0 0 0 0 0 0 0 0 0 127 0" result="hardAlpha"/>
<feOffset/>
<feGaussianBlur stdDeviation="29.4866"/>
<feColorMatrix type="matrix" values="0 0 0 0 0.490196 0 0 0 0 0.682353 0 0 0 0 0.831373 0 0 0 1 0"/>
<feBlend mode="normal" in2="effect2_dropShadow_2191_2064" result="effect3_dropShadow_2191_2064"/>
<feColorMatrix in="SourceAlpha" type="matrix" values="0 0 0 0 0 0 0 0 0 0 0 0 0 0 0 0 0 0 127 0" result="hardAlpha"/>
<feOffset/>
<feGaussianBlur stdDeviation="58.9732"/>
<feColorMatrix type="matrix" values="0 0 0 0 0.490196 0 0 0 0 0.682353 0 0 0 0 0.831373 0 0 0 1 0"/>
<feBlend mode="normal" in2="effect3_dropShadow_2191_2064" result="effect4_dropShadow_2191_2064"/>
<feBlend mode="normal" in="SourceGraphic" in2="effect4_dropShadow_2191_2064" result="shape"/>
</filter>
<linearGradient id="paint0_linear_2191_2064" x1="0.220945" y1="315.613" x2="-24.6639" y2="381.253" gradientUnits="userSpaceOnUse">
<stop stop-color="white"/>
<stop offset="1" stop-color="#C4E4FD"/>
</linearGradient>
<linearGradient id="paint1_linear_2191_2064" x1="-36.9521" y1="315.619" x2="74.3926" y2="711.359" gradientUnits="userSpaceOnUse">
<stop stop-color="white"/>
<stop offset="1" stop-color="#C4E4FD"/>
</linearGradient>
<linearGradient id="paint2_linear_2191_2064" x1="-36.9521" y1="315.619" x2="74.3926" y2="711.359" gradientUnits="userSpaceOnUse">
<stop stop-color="white"/>
<stop offset="1" stop-color="#C4E4FD"/>
</linearGradient>
<linearGradient id="paint3_linear_2191_2064" x1="-36.9521" y1="315.619" x2="74.3926" y2="711.359" gradientUnits="userSpaceOnUse">
<stop stop-color="white"/>
<stop offset="1" stop-color="#C4E4FD"/>
</linearGradient>
<linearGradient id="paint4_linear_2191_2064" x1="-36.9521" y1="315.619" x2="74.3926" y2="711.359" gradientUnits="userSpaceOnUse">
<stop stop-color="white"/>
<stop offset="1" stop-color="#C4E4FD"/>
</linearGradient>
<linearGradient id="paint5_linear_2191_2064" x1="221.861" y1="427.948" x2="221.861" y2="695.606" gradientUnits="userSpaceOnUse">
<stop stop-color="#66A5D5"/>
<stop offset="1" stop-color="#D9D9D9" stop-opacity="0"/>
</linearGradient>
<linearGradient id="paint6_linear_2191_2064" x1="76.8463" y1="600.339" x2="98.012" y2="631.846" gradientUnits="userSpaceOnUse">
<stop stop-color="white"/>
<stop offset="1" stop-color="#C4E4FD"/>
</linearGradient>
<linearGradient id="paint7_linear_2191_2064" x1="74.4413" y1="603.479" x2="49.4914" y2="632.083" gradientUnits="userSpaceOnUse">
<stop stop-color="white"/>
<stop offset="1" stop-color="#C4E4FD"/>
</linearGradient>
<linearGradient id="paint8_linear_2191_2064" x1="127.606" y1="613.855" x2="109.525" y2="634.548" gradientUnits="userSpaceOnUse">
<stop stop-color="white"/>
<stop offset="1" stop-color="#C4E4FD"/>
</linearGradient>
<linearGradient id="paint9_linear_2191_2064" x1="0.222898" y1="315.613" x2="-24.662" y2="381.254" gradientUnits="userSpaceOnUse">
<stop stop-color="white"/>
<stop offset="1" stop-color="#C4E4FD"/>
</linearGradient>
<linearGradient id="paint10_linear_2191_2064" x1="-268" y1="284.961" x2="-268" y2="552.619" gradientUnits="userSpaceOnUse">
<stop stop-color="#66A5D5"/>
<stop offset="1" stop-color="#D9D9D9" stop-opacity="0"/>
</linearGradient>
<linearGradient id="paint11_linear_2191_2064" x1="-93.3206" y1="317.196" x2="-93.3206" y2="584.854" gradientUnits="userSpaceOnUse">
<stop stop-color="#66A5D5"/>
<stop offset="1" stop-color="#D9D9D9" stop-opacity="0"/>
</linearGradient>
<linearGradient id="paint12_linear_2191_2064" x1="29.5672" y1="519.978" x2="-61.2448" y2="630.936" gradientUnits="userSpaceOnUse">
<stop stop-color="white"/>
<stop offset="1" stop-color="#C4E4FD"/>
</linearGradient>
<linearGradient id="paint13_linear_2191_2064" x1="291.545" y1="574.16" x2="346.259" y2="625.031" gradientUnits="userSpaceOnUse">
<stop stop-color="white"/>
<stop offset="1" stop-color="#C4E4FD"/>
</linearGradient>
<clipPath id="clip0_2191_2064">
<rect width="581" height="632" fill="white"/>
</clipPath>
<clipPath id="clip1_2191_2064">
<rect width="848.706" height="631.851" fill="white" transform="matrix(-1 0 0 1 580.705 0)"/>
</clipPath>
</defs>
</svg>
